<svg version="1" xmlns="http://www.w3.org/2000/svg" width="666.667" height="666.667" viewBox="0 0 500.000000 500.000000"><path d="M0 24.4v24.3l4 2.7C6.2 52.8 8.2 54 8.5 54c.3 0 1.5.8 2.6 1.9 1.9 1.8 1.9 2.1.4 9.2-.8 4.1-2.2 9.9-3.1 12.9-1.5 5.4-3.2 14-3.8 19-.7 6.4-2 11.8-3.3 14.4-1.3 2.5-1.5 7.3-1 31 .3 16.6 1 29.7 1.6 32.1 1.5 5.3 4.2 11.6 5.6 13.5.7.8 1.8 4.8 2.4 8.8.9 5.2 2.1 8.3 4 10.5 4.4 5.3 6 8.9 5 11.4-.5 1.3-1.2 2.3-1.8 2.3-.5 0-1.1.9-1.4 2.1-.6 2.4 3.1 6.9 5.7 6.9 4.2 0 7.6 14.2 7.6 31.6 0 11 2.1 24.1 5.4 33.7.9 2.6 1.6 6 1.6 7.6 0 1.6.6 3.4 1.4 4 .8.7 3.3 5 5.5 9.5 2.8 5.7 4.8 8.5 6.2 8.9 1.2.3 1.8 1 1.5 1.6-1.1 1.7 2.7 7.8 6.4 10.3 4.3 2.9 5.3 7.2 1.9 8.3-1.7.6-3-.1-6.1-3.3-3.7-3.9-7.4-6-8.4-4.9-.3.3.2 3.5 1.1 7.2.8 3.8 2.2 11.3 3 16.7 2.2 14.3 6.5 21.7 15 25.7 5.3 2.5 11.4 2.7 15.6.6 2.3-1.2 3-1.3 3.4-.3.3.7 1.6 8.3 3 16.8 2.8 17.3 6 29 11.1 39.7 1.9 3.9 3.4 7.3 3.4 7.6 0 .3-3 6.1-6.6 12.9-6.8 12.6-9.9 17.2-19.9 29l-5.7 6.8H103v-7.3c.1-6.9 2.1-20.1 3.3-21.3 1.1-1.1 2.7.7 2.7 3 0 3.2 3.7 17.4 5.6 21.8l1.7 3.8H183c56.9 0 66.9-.2 67.3-1.4.3-.8-.5-3.6-1.7-6.3-1.3-2.6-3-6.2-3.7-8-1.1-2.6-1.6-3-2.8-2-1.2 1-1.3.9-.7-.8.4-1.1 1-3.2 1.3-4.8.3-1.7 1.2-2.7 2.3-2.7 1 0 2.3-.7 3-1.5.7-.8 2-1.5 3-1.5s2-.6 2.3-1.3c.5-1.4 14.4-3.7 20.2-3.3 2.2.2 6.5.7 9.5 1.1l5.5.7-1.9-2c-2-2.3-2.2-2.2 5.4-3.5 1.4-.2 3.4-.8 4.5-1.3 1.8-.7 1.8-.6.6.9-1 1.2-1 1.7-.2 1.7 2.2 0 4.1 2.6 2.8 3.9-.8.8-.7 1.1.5 1.1.9 0 1.8-.5 2-1.1.2-.6 1.6-1.1 3.1-1.1 2.1 0 2.9-.7 3.3-2.5l.6-2.4 2.9 3.3c1.9 2.3 2.8 2.8 2.9 1.7 0-2.4 2-3.6 7.1-4.4 4.2-.6 4.7-.5 5.2 1.5.3 1.2 1 1.9 1.5 1.6 1.3-.8 3.6 2 2.8 3.3-.4.6-.4 2.1-.1 3.4.6 2.3.9 2.4 3.6 1.4 1.6-.6 2.9-1.9 2.9-2.8 0-1 1.1-2 2.5-2.3 1.4-.4 2.3-1 2-1.5-.2-.5.7-1.2 2.1-1.5 1.4-.4 4.4-2.7 6.6-5.1 2.2-2.5 4.9-4.7 5.9-5 2.4-.8 2.4-2.5 0-7.2-1.9-3.7-1.9-9.3 0-9.3.5 0 .9-.8.9-1.8 0-2 4.2-4.2 6.9-3.5 1 .3 2.9 0 4.1-.7 1.9-1 2.1-1.7 1.6-5.8-.4-2.6-.7-5.8-.7-7.2 0-1.4-.5-3-1-3.7-.7-.7-.6-1.4.1-1.8.5-.3 1-1.4 1-2.5 0-1 .7-2 1.5-2.4.8-.3 1.2-1.2.9-2-.3-.8-.1-1.7.5-2 .6-.4.8-1.3.4-2.1-.3-.9.1-1.5 1-1.5 1.2 0 1.4.6.8 2.8-.6 2.1-.3 3.2 1.6 4.9 1.6 1.5 2.3 3.4 2.4 6 .2 8.9.5 11.9 1.3 13.1.4.7.2 2.8-.5 4.6-1 2.7-1 3.8-.1 4.9.9 1.1 1 2.2.2 4.2-.6 1.5-.8 3-.5 3.5.3.5-.4 1.1-1.5 1.5-1.7.5-1.9 1.2-1.4 4.6.6 3.5.4 3.9-1.4 3.9-1.1 0-2.2-.3-2.5-.8-.2-.4-.2-.1-.1.5.2.7-.5 1.3-1.5 1.3-2.3 0-3.7 3-1.9 4.1.7.5 1.5.4 1.6-.1.6-1.6 2.2-1.2 2.2.5 0 .8-.6 1.6-1.2 1.6-.7.1-2 .3-2.8.4-.8.1-2.1.3-2.7.4-.7 0-1.3.8-1.3 1.6s-.4 1.5-1 1.5c-.5 0-1 .8-1 1.7 0 1.3-.3 1.4-1.2.5-1.9-1.9-2.4-1.4-2.2 1.9.4 5.1-2.6 10-3.9 6.6-.3-.6-.3.2 0 2 .4 2.5.1 3.3-1.6 4.2-1.2.7-2.1 2-2.1 3s-.8 2.9-1.9 4.2c-1 1.3-1.6 2.9-1.4 3.6.5 1.3-3.2 2.7-4.6 1.8-.6-.3-.9.4-.8 1.5.1 2 .7 2 36.3 2h36.3l1-5.3c.6-2.8 1.5-12.6 1.9-21.7.6-13.9.9-16.5 2.3-16.8 2.3-.4 7.4 10.5 9.3 19.8.8 4.1 1.8 11.2 2.2 15.7l.7 8.3H500V154.2l-3.7-.8c-2.1-.4-5.2-.8-7-.8-1.8-.1-4.1-.8-5.2-1.7-2.4-2.2-3.5-10-2.2-15.9.5-2.4.8-4.7.5-5.2-.3-.4.2-1.8 1-3 1.2-1.9 1.4-6.9 1.2-28-.2-16.4.1-25.5.7-25.1 2.1 1.3-2-10.6-4.6-13.5-.9-1-1.7-3.1-1.7-4.6 0-1.5-1.1-4.2-2.5-6-1.8-2.3-2.2-3.5-1.4-4.3 1.4-1.4-2.7-9.3-4.8-9.3-.8 0-1.2-1-1.1-2.8.4-6.9-.2-10.3-1.8-10-1 .2-1.9-.3-2.2-1.1-.3-.8 0-1.1.7-.7.7.5 1.1-.1 1.1-1.3s.3-2.1.6-2.1c1 0 3.7 3.1 5.3 6.1.9 1.6 3.4 4.8 5.6 7.1 5.4 5.7 12.5 15.2 12.5 16.7 0 .6.7 1.4 1.5 1.7.8.4 1.5 1.1 1.5 1.6 0 .6 1.3 2.6 3 4.5l3 3.4V0h-88c-75.6 0-88 .2-88 1.4s.7 1.3 3.2.5c4.6-1.3 13.2-1.1 14.6.3.7.7 1.2 2 1.2 3 0 1.1.7 1.8 1.8 1.8 1 0 2.2.4 2.7.9 2 2 9.9 4 11.2 3 1.9-1.7 4.8-.2 9.7 4.9 4 4.1 5.6 7.2 3.4 6.5-1.8-.6-.6 1.5 1.3 2.3 2.9 1.3 7.1 11.9 6.5 16.6-.2 2.1 0 4.1.5 4.4.5.3.7 1 .3 1.5-.3.6.1 1.8.8 2.7 2.8 3.3 3.2 4.4 1.2 4-3-.5-7.1 4.5-4.4 5.4.6.2 1.3 2 1.7 4.1.7 4.3-.4 4.6-7.2 2.2-5.3-1.9-5.5-1.2-.6 2 2.2 1.5 3.8 3.2 3.5 3.7-.8 1.3 1.5 3.8 3.6 3.8 1 0 2.5 1.1 3.4 2.5 2 3.1 2.1 4.1.1 2.5-.9-.7-1.9-.9-2.3-.5-.4.4-.1 1 .6 1.2.9.4.7 1.4-.9 4.2-1.9 3.5-2.3 3.7-6.2 3.4-3.9-.3-7.9-2.3-4.7-2.3.8 0-1-1.2-4-2.8-3-1.5-5.8-3.2-6.2-3.9-.5-.6-1.7-.9-2.8-.6-1.1.3-2 .1-2-.3 0-.5-1.4-1.5-3-2.3-2.5-1.1-3.3-1.1-4.6 0-1.4 1.1-1.8 1.1-2.8-.2-1.3-1.8-14-2.3-12.9-.6.9 1.4-5-.2-5.9-1.6-.6-.9-1-.8-1.7.3-.8 1.2-1.3 1.2-3.5 0-1.4-.7-2.9-1-3.3-.7-.3.4-.1.7.5.7.7 0 1.2.4 1.2 1 0 .5-1.1 1-2.5 1-1.6 0-2.5-.6-2.5-1.5 0-1.9-.9-1.9-3.4 0-2.2 1.7-9.5 2-14.3.6-2-.6-3.5-.5-4.1.1-.6.6-3.7 1.2-6.9 1.4-3.3.3-8.9 1.3-12.6 2.3-3.7 1.1-6.7 1.7-6.7 1.3 0-.3-.6.1-1.2 1-.7.9-3.3 2.3-5.8 3.2-4.2 1.4-4 2.1.5 1.6 1.1 0 4.5-1 7.5-2.1 14.4-5.3 55.2-7 73.5-3 5.5 1.2 12.3 3.3 15.1 4.6 2.8 1.4 5.7 2.5 6.5 2.5.8 0 4.6 1.5 8.5 3.4 6.8 3.2 8.4 4.8 8.4 8.3 0 2.3 4 5.4 6.2 4.7 1.8-.5 2.3.4 1.8 3.6-.1 1.1.1 1.2 1 .4.8-.8 2-.2 4.6 2.4 1.9 1.9 3.3 3.6 3.1 3.8-.8.8-4.7-1-4.7-2.3 0-1-.4-1.1-1.9-.3-2.6 1.3-6.4 1.3-5.6-.1.4-.6-.2-1.3-1.2-1.5-1-.3-2.5-1.5-3.2-2.6-1.1-1.7-1-2.2.1-2.9.9-.6.8-.9-.7-.9-1.2 0-2.6-.5-3.3-1.2-.9-.9-1.3-.7-1.8.6-.7 1.8-2.3 1.6-8.2-1-1.8-.9-3-2-2.6-2.5.3-.6-.4-.7-2-.3-1.6.4-2.6.2-2.6-.5 0-1.5-2.7-1.4-3.2 0-.5 1.6-4.9-.7-4.5-2.4.1-.7-.7-1.1-1.8-.9-5.3.7-7.6 1.2-8.6 1.7-.5.4-1.6.1-2.4-.5-.9-.7-2.8-1-4.5-.6-1.7.3-3 .1-3-.4 0-.6.7-1 1.6-1 .8 0 1.2-.5.9-1-.5-.8-1.1-.8-2 0-.7.6-2.7 1.3-4.5 1.5-4 .5-4.9 1.3-3 2.6 1.1.8.2.9-3 .5-3.1-.4-5.4-.1-7.4.9-1.5.8-3.4 1.5-4.2 1.5-.7 0-1.8.9-2.4 2.1-.7 1.3-1.7 1.8-2.7 1.5-.9-.4-2.2-.1-2.9.5-.8.6-2.1.9-2.9.5-.8-.3-1.5-.1-1.5.5 0 .5-1 1.4-2.2 1.9-2.1.8-2.1.9.7.9 1.7.1 4.6-.3 6.5-.9 19.3-5.5 30.2-5.9 50-1.5 10.2 2.2 22 6.8 22 8.6 0 .5.7.9 1.5.9s1.5.5 1.5 1c0 .6 1.1 1.6 2.5 2.2 3.2 1.5 3.4 4.2.3 3.3-1.3-.4-3.3-1.3-4.5-2.1-1.2-.8-2.9-1.4-3.8-1.4-.8 0-1.5-.4-1.5-.9s-.8-1.1-1.7-1.3c-2.4-.5-7.3 1.1-7.3 2.4 0 .6-.7.7-1.6.4-1-.4-1.4-.1-1.2.6.3.7 2 1.4 3.9 1.6 1.9.2 4.1.9 4.9 1.6.8.8 3.8 2.1 6.7 3 2.8 1 5.7 2.4 6.3 3.2 1.5 1.7 6 1.9 6 .3 0-.7-1-2-2.1-3-1.2-1.1-1.9-2.5-1.5-3.4.6-1.7 2.6-2.1 2.6-.5 0 .5.6 1 1.4 1 .7 0 1.6.9 1.9 2 .3 1.2 1.4 2 2.5 2 1.5 0 1.9.5 1.5 1.8-.2 1 .3 2.4 1.1 3.1.9.8 1.6 2.2 1.6 3.1 0 1 .6 2.1 1.3 2.3.9.4.9.8-.2 1.5-.8.6-1.2 1.9-.8 3.2.4 1.7.3 1.9-.9.9-1-.8-1.4-.8-1.4 0 0 1.8-2.5 1.3-4.5-.9-1-1.1-2.4-2-3.2-2-.7 0-1.3-.5-1.3-1 0-.6-.9-1-2-1s-2 .3-2 .6c0 .9 4.4 4.3 5.7 4.4.6 0 1.8.8 2.5 1.8s3.1 3.1 5.3 4.7l4 3-1.8-2.7c-2.1-3.3-2.1-3.8-.2-3.8.8 0 1.5.5 1.5 1.1 0 .7.8 1.7 1.7 2.4.9.7 1.8 2.7 1.9 4.4.2 2.8 0 3-1.3 1.9-1.4-1.1-1.5-1-.8 1.1l.7 2.5-2.9-2.5c-1.7-1.3-2.9-2.7-2.7-3.1.3-.4-.6-1-1.8-1.3-1.3-.4-3.6-1.9-5.1-3.3-2.1-2-3-2.3-3.6-1.4-1 1.6-8-3.6-8.1-6.1 0-.9-.4-1.7-1-1.7-.5 0-.7.7-.3 1.6.5 1.5.3 1.5-2-.1-1.5-.9-2.4-2.1-2.2-2.6.7-1.1-2.7-2.9-5.7-3-1.3 0-1.7-.3-1-.6 2.4-.9 1.2-2.3-2-2.2-1.8 0-2.7.3-2 .6 2.5 1 1.1 2.4-1.8 1.8-2.4-.5-3-.3-3 1.1 0 1.4-.7 1.6-4.5 1.2-3.4-.4-4.5-.2-4.5.9 0 1.9-2.7 2.8-4.4 1.4-1-.8-1.9-.5-4 1.4-2 1.8-3.4 2.3-5.1 1.9-3-.8-5.3.4-3.4 1.8 1 .7.5.8-1.5.3-4-.9-13.6 1.3-13.6 3.1 0 .8-.3 1.3-.7 1.3-2-.3-3.4.2-2.8 1.1.3.5-.1 1-.9 1s-1.9.6-2.3 1.3c-1.1 1.7-7.3 3.7-11.6 3.7-2.5 0-3.7.5-3.7 1.4 0 .8.5 1.6 1.1 1.8 1.5.5.2 3-3.1 5.5l-2.8 2.3-3-4.5c-1.6-2.4-3.1-4.2-3.4-4-.7.7-10.8 1.1-11 .4-.2-.3-1.8-.9-3.6-1.2-4.2-.9-3.4.5 2.4 3.9 4.3 2.5 5.9 4.2 2.9 3-.9-.3-1.5 0-1.5.9 0 .8-.7 1.5-1.5 1.5s-1.2.6-.9 1.4c.3.8-.4 1.6-1.8 2-1.4.5-1.8.9-1 1.3 1.7.7 1.5 3.3-.3 3.3-.9 0-1.2.6-.9 1.5.4 1 0 1.5-1.5 1.5-1.2 0-2.1.6-2.1 1.5s-.7 1.8-1.5 2.1c-.8.4-1.5 1.8-1.4 3.3 0 1.5.3 2 .6 1.1.9-2.2 3.3-4.3 4.1-3.5.4.3-.1 1.1-1.1 1.6-2.7 1.6-2 2.4 3.1 3.8 5.8 1.4 8.3 3.9 6.8 6.5-.9 1.4-.6 2.1 1.2 3.6 2.3 1.9 2.1 4.7-.3 6.2-.9.5-.6 2.1 1.2 5.7 1.7 3.3 2.6 7.1 2.8 12 .3 3.9.9 8.1 1.6 9.2.6 1.1 1.3 3.2 1.5 4.6.5 2.5 5.1 7.1 6.6 6.6.5-.2.8.6.8 1.7s.7 2 1.5 2c1 0 1.5-1 1.5-3 0-1.7.5-3 1-3 .6 0 1 1.3 1 3 0 2 .5 3 1.5 3 .9 0 1.8.7 2.1 1.5.6 1.6-1.6 7.5-2.8 7.5-.5 0-.8.7-.8 1.5 0 .9 2-.3 5-3.2 2.7-2.6 5-5.3 5-6 0-1.6 1.2-1.7 2.8-.1.8.8 1.2.8 1.2.1 0-.6-1.7-2.1-3.7-3.3-3.4-2-3.6-2.3-1.8-3 1.8-.7 1.9-.8.3-1.5-2-.8-2.4-4-.7-5 1.3-.9 4.8 2.3 6 5.2.5 1.3 2 2.5 3.6 2.8 3.6.8 7.6 2.7 8.5 4 .4.6 3.3 1.2 6.5 1.4 3.2.1 6.8.3 8 .4 3 .3 3.3-1.6.6-2.8-1.6-.7-2.1-1.6-1.9-3.2.3-1.5-.3-2.7-2-3.8-1.3-.8-2.4-1.3-2.4-1 0 1.1-3.4-2.7-4.7-5.3-.7-1.3-1.3-3-1.3-3.7 0-1.9 3.6-4.6 5.3-4 1 .4 1.5.1 1.4-1-.2-1.3.8-1.8 3.8-2 2.2-.1 4.5 0 5 .4 1.7 1 7 .9 7.6-.1.4-.6 2-.7 4-.3 1.9.5 2.8 1 2.2 1.2-2.6.9-1.2 2.3 2.2 2.3 2.4 0 3.5-.5 3.5-1.5 0-1.7-.1-1.7 6.2-1.9 2.6 0 5.3-.7 6-1.5 1.1-1.2 1-1.3-.4-.8-1 .4-1.8.2-1.8-.3 0-.6.3-1 .8-1.1.4 0 2.2-.2 4-.3 3.4-.4 5.4 1 2.8 2-.9.3-1.6 1.3-1.6 2.1 0 1.3.3 1.3 1.6.2 1.3-1 1.7-1 2.4.1.7 1.2 1 1.1 1.6-.3.3-.9 1-1.4 1.5-1.1.5.3.9 0 .9-.6s.8-1 1.8-.8c1.2.2 1.7-.4 1.8-2.2.2-6.4.4-6.6 2.3-3 2.2 4.1 2.5 10.6.6 13.6-1.2 1.8-1.1 2.7.1 6l1.5 3.9-.5-3.8c-.5-4.2 1-5 2.4-1.1 1.6 4 1.2 6.5-1 7.1-2.5.7-2.5 1.4 0 3.6 2.7 2.3 5 2.2 5-.3 0-1.1.5-2 1-2 .6 0 1 .4 1 1 0 .5.5 1 1.1 1 .8 0 .9-1.3.5-3.9l-.6-4 3 .9c1.8.5 3 .5 3-.1 0-.5-.7-.9-1.5-.9s-1.5-.7-1.5-1.6c0-.8.5-1.2 1-.9.6.4 1-.5 1-1.9 0-2.1-.5-2.6-2.4-2.6-1.3 0-2.6.6-2.8 1.2-.3.8-1 .3-1.7-1.1-1.1-2.1-1.1-2.3.2-1.8.8.3 2 0 2.6-.6.8-.8 1.4-.8 1.9-.2.6.9 1.5 1 6 .6.6-.1 1.2-.8 1.2-1.6 0-1.7 3.6-2 6-.5.9.5 1.9.5 2.7-.2.8-.6 1.3-.6 1.3-.1 0 .6 1.6 1.8 3.5 2.9 1.9 1 3.5 2.3 3.5 2.7 0 .5.6.5 1.3-.1 2.3-2 4.2.8 3.9 6-.1 3.2 1.3 3.8 2.1.8.3-1.1 1-2 1.5-2 1.3 0 2.3 5.3 1.1 6.1-.6.3-.9 1-.8 1.5.1.5-.1 1.7-.5 2.6-.5 1.1-.2 2.3.9 3.4 2 2 1.2 3.2-1 1.4-.9-.7-1.9-1-2.3-.6-.4.4.1 1.4 1.2 2.1 3.6 2.7 5.3 8.5 2.4 8.5-.6 0-.8-.7-.4-1.5.3-.9 0-1.5-.9-1.5-.8 0-1.5.9-1.5 2 0 2.1-1.5 2.7-2.5 1-1.1-1.8-2.5-1-2.5 1.4 0 1.5-.7 2.6-2 2.9-1.1.3-2 1.1-2 1.7 0 .7.6 1 1.4.7 1.8-.7 2.9 3.2 1.5 5-.6.6-.8 1.7-.5 2.2 1.2 1.8-1.2 2.1-3 .4-1.2-1.2-1.9-1.4-2.1-.6-.3.7-1.1.9-2 .6-1.3-.5-1.5-.1-1 2.4.5 2.6.3 3.2-1.6 3.7-1.4.3-2.8-.2-4-1.4-2.4-2.7-2.8-2.5-1.6.9.7 2.1.7 3.6 0 5-.6 1.1-1.1 3.1-1.1 4.5 0 2.5.9 3 4.9 2.8 1 0 1.2.9.7 3.9-.6 4.1.8 5.5 1.9 1.9.3-1.1 1.4-2.4 2.4-3 1.5-.7 2.7.1 6.6 4.6 2.6 3 4.5 5.8 4.2 6.1-.4.3-1.3-.2-2.3-1.1-1.3-1.4-1.9-1.4-3.2-.4-1.2 1-1.4 1-.8 0 .4-.6.2-1.2-.4-1.2-.6 0-.8 1-.4 2.5s.2 2.5-.5 2.5c-1.6 0-1.3 3.6.4 5 1 .9 1.5.9 1.5.1 0-.6.6-1.1 1.3-1.1 1.5 0 4.2 4 3.9 5.8-.2.6.2 1.2.7 1.2.6 0 .8 1.3.4 3.1-.5 2.7-.3 3.1 1.3 2.7 1.3-.2 1.9-1.1 1.8-3-.1-2.5.1-2.7 2.4-2.1 2 .5 2.4.3 2-.9-.4-.8.2-2 1.3-2.6 1.6-1 2.1-1 2.5.2.8 2.1-2.5 5.4-4.7 4.9-1.3-.4-2 0-2 1.1-.1.9-.2 2.2-.3 2.8-.1.7-1.2 1.9-2.5 2.6-2 1.2-2.1 1.6-1 2.8 1.7 1.6 6.2.7 5.5-1.2-.5-1.2 1.4-6.4 2.4-6.4.3.1 1.3.7 2.3 1.5 2.6 1.9 1.9 6.1-1 5.8-1.5-.2-2.3.4-2.7 2.1-.5 2.2-3.6 4-6.3 3.7-1.7-.2-1.6 1.1 0 3.3 1.6 2.2 1 6.6-.9 6.6-.9 0-1.2 1-.9 2.9.4 3.1-1.5 4.7-3.3 2.9-.7-.7-1.9-.4-3.7.8-2 1.3-2.5 2.2-2 3.8 1.5 4.9 1.4 8.6-.3 8.7-1 .1-.6.4.8.8s2.8.3 3.1-.2c.4-.6 1.4-.7 2.4-.4 2.1.9 1.2 4.2-2.3 7.9-2.2 2.4-2.4 3-1.3 5.6.9 2.2 1 3.6.2 5.1-3.1 6.1-3.1 6.1-1.9 6.1 1 0 1 .2-.1.9-.7.5-1.4 2.3-1.6 4-.1 1.7-.5 3.4-.8 3.7-.3.3-.1 1.8.4 3.2.7 1.8.6 2.7-.3 3.3-.7.4-1.4.7-1.6.5-.1-.2-.4-4.1-.6-8.8-.2-4.6-.8-9.4-1.4-10.5-.6-1.1-.8-2.3-.5-2.7.3-.3-.8-.6-2.5-.6-1.8 0-3.2-.4-3.2-.8 0-.5 1.4-.7 3.1-.6 2.3.2 2.9-.2 2.7-1.4-.3-1.1-1.2-1.6-2.6-1.5-3.3.4-2.8-3.3.9-6.8 3.1-2.9 3.1-3 1.3-4.5-1.3-1.1-1.5-1.7-.7-2 1-.4.9-.9-.2-2.1-.8-.8-1.5-2.3-1.5-3.4 0-1-.4-1.9-1-1.9-.5 0-1-.7-1-1.5 0-1.8-.7-1.9-5-.3-3.1 1-3.2 1.2-1.5 2.5 1.8 1.2 1.7 1.3-.8 1.3-1.5 0-2.7.3-2.7.8 0 1.4 4 4.2 5.3 3.6 1-.4 1.3.3.9 2.6-.2 1.8 0 3 .7 3 1.4 0 1.5 7.6.1 8.5-.9.6-1.4-1.4-1.1-4.3.2-1.5-2.1-1.6-3.6-.1-1.3 1.3-.6 4 1.4 5.2.7.5 1.1 1.3.8 1.8-.4.5-1.1.7-1.6.4-.5-.4-.9-.2-.9.4 0 .5.5 1.1 1.2 1.3.8.3.7 1.4-.5 3.8-2.2 4.3-2.1 5 .4 5 1.6 0 2 .5 1.6 2-.3 1-.2 1.9.2 1.8 2.6-.3 3.3.3 2.1 1.7-.7.8-1.9 1.5-2.6 1.5-.9 0-1.4 1.2-1.4 3.7 0 4.3-.6 5.3-3.7 7.1-5.1 2.8-7.4.3-7.4-8.1.1-6.4-.3-9.6-1.4-12.2-2.4-5.9-3.4-8.6-3.3-8.8 0-.1-.9-2.1-2.1-4.4-1.1-2.3-2.1-4.9-2.1-5.7 0-.8-1.1-2.7-2.5-4.2s-2.4-3.3-2.3-4c.2-.8-.9-2.6-2.4-4.1-8.2-8.4-18.2-22.2-19.2-26.6-.4-1.5-1.1-2.7-1.6-2.7-.6 0-1-.7-1-1.5s-.7-1.5-1.5-1.5-2.5-2-3.7-4.5c-1.2-2.5-2.6-4.5-3-4.5-.4 0-.8-.6-.8-1.4 0-.8-1-2.3-2.2-3.3-2.4-1.9-7.1-7.2-12.8-14.3-1.9-2.4-4.4-5.4-5.5-6.5-1.1-1.2-3.5-4-5.4-6.3-1.8-2.3-3.9-4.2-4.6-4.2-.7 0-3-1.6-4.9-3.5-2-1.9-4-3.5-4.5-3.5s-1.1-.9-1.4-2.1c-.7-2.7-3-2-3.8 1.2-.8 3.2 1.1 6.8 5.3 9.8 1.8 1.4 5.1 4.5 7.3 7s5 5.6 6.2 6.8c1.1 1.2 2.4 3.6 2.8 5.2.9 4.2 3.2 5.9 4.8 3.7 1.1-1.5 1.5-1.5 2.4-.4 1.3 1.6 4.7 7.5 8.5 14.8 1.5 3 3.8 7.1 5 9 4.3 7 6.8 12.1 6.8 14 0 1 .9 2.2 2.1 2.5 1.1.4 1.8.9 1.5 1.3-.3.3.5 2 1.9 3.8 1.4 1.8 2.5 3.7 2.5 4.2s1.6 2 3.5 3.3c1.9 1.3 3.5 2.9 3.5 3.6 0 .7.8 1.7 1.9 2.2 1.7.9 3.7 5.1 2.4 5.1-1.4 0-6.3-4.3-6.3-5.6 0-.8-.4-1.4-1-1.4-.5 0-1 1.1-1 2.5 0 1.6.6 2.5 1.5 2.5 1 0 1.5 1 1.5 2.9 0 1.7.5 3.3 1 3.6.6.4.8 1.5.5 2.5-.4 1.3.1 1.9 2 2.4 3.1.8 2.4 2.6-1 2.6-1.3 0-2.7.5-3 1-1 1.6-3.8 1.2-3.1-.5 1-2.7-1.3-1.5-2.9 1.5-.8 1.6-1.5 3.1-1.5 3.5 0 1.1 2.8.5 3.3-.8.3-.9.7-.9 2 .2 1.1.9 1.7 1 1.7.2 0-.6.4-1.1 1-1.1.5 0 .7.6.4 1.4-.6 1.6-9.5 2.9-10.8 1.5-.6-.5-1.9-.9-2.9-.9-1.3 0-1.7-.5-1.3-1.6.5-1.3.1-1.4-2.3-.9-1.7.3-3.2.2-3.6-.4-.4-.7.3-1.1 1.7-1.1 1.3 0 3.3-.7 4.4-1.5 2.6-1.8 3.7-.9 2.1 1.6-.6 1-.7 2.2-.3 2.6.5.4 1.1.2 1.3-.4.3-.7 1.1-1.3 1.9-1.3.9 0 1.2-.5.9-1-.3-.6.1-1.3.9-1.6.9-.3 1.6-1.1 1.6-1.6 0-.6-2.8-.8-7.1-.5-5.7.4-6.9.2-6.5-.9 1.2-3-2.5-1-4.3 2.3-1.5 2.8-3.5 3-2.6.3.7-2.4-1-2.7-1.9-.4-1 2.5.4 3.7 3.5 3 2.7-.5 3.4.1 3 2.6 0 .5.7.8 1.7.8 1.1 0 2.2 1.2 3 3.2 1 2.7.9 3.3-.6 4.4-1.9 1.5-2.3 1.5-13.2 1.9-4.1.1-8.6-.2-10-.7-1.4-.6-6.8-1.1-12-1.3-5.2-.2-10.8-.7-12.5-1.2-5.5-1.6-18.5.4-18.5 2.9 0 .4-1.8.5-4 .2-2.3-.4-5.2-.2-6.9.6-2.7 1.1-3.3.9-6.4-1.4-1.8-1.4-3.7-2.3-4.1-1.9-.9 1-4.9 1.2-6.1.3-.5-.4-2.7-1.3-4.7-1.9-2.1-.7-4.5-2.2-5.4-3.4-.9-1.2-1.4-1.5-1.2-.7.3.8-.1 2-.8 2.7-1.6 1.7-2.4 1.6-2.4-.1 0-2.9-2.3-2.8-5.1.2-2.7 2.9-3.4 3.1-7.9 2.7-3.5-.3-5 0-5 .8 0 1.4-12.6 5.8-14.6 5-.7-.2-2-1.5-2.8-2.8-2.2-3.3-.4-7.3 3.1-7.2 1.6 0 2.2.4 1.9 1.3-.3.9.1 1.4 1.2 1.4 1 0 2.3.5 3 1.2.9.9 1.2.7 1.3-1 .3-4.3.5-4.7 2.2-4.4 1.1.2 1.7-.4 1.7-1.8 0-2.3 1-2.6 2.9-.8 1 1.1 1.1.8.6-1.3-.6-2.2-.2-2.8 2.5-3.9 2.8-1.2 3.4-1.1 4.1.2.5.8 2.4 1.5 4.4 1.6 2.1.1 3.3-.3 3-.8-.3-.6-.1-1 .5-1s1.3.6 1.6 1.4c.5 1.4 5 3.2 6.9 2.7.9-.3 3.3-.8 4.5-1 .3-.1-.2-.6-1-1.1-1.3-.8-1.3-1.1-.1-1.9.8-.5 1-1.4.6-2.2-.6-1.1-.5-1.2.6-.2 1.8 1.7 4 1.6 3.3-.1-.7-1.9 6.3-2.7 10.1-1 1.7.7 2.4 1.3 1.8 1.3-1.8.1-1.6 2.1.2 2.1 2.1 0 1.9 1.2-.6 3.8-1.7 1.9-1.8 2.3-.5 2.8.9.3 2.1 2.1 2.8 4 1.1 3.2 1.5 3.4 4.3 2.8 1.6-.4 4-1.6 5.2-2.8 3.8-3.8 5.2-4.6 7.7-4.6 1.3 0 3.1-.6 3.9-1.4.9-.9 2.8-1.3 5.5-1 2.3.2 4.3 0 4.6-.4.4-.7-3.8-6.2-4.9-6.2-.3 0-.3.4 0 1 1.1 1.7-6.2 1.1-8-.6-1.3-1.4-1.4-1.9-.3-2.5 1.9-1.2 5.6-1.1 8.1.3 2 1 2.1 1 .9-.5-1.1-1.3-1-1.7.8-2.7 1.2-.6 1.9-1.4 1.7-1.7-.3-.2-1.4 0-2.4.5-1.2.7-2.5.7-3.4.1-.7-.5-.9-.9-.4-1 .6 0 .1-.5-1-1-1.4-.7-.7-.8 2.5-.3 2.5.3 5.5.6 6.7.6 1.4 0 2 .5 1.6 1.4-.3.8 0 1.4.6 1.4s1.1-.5 1.1-1c0-.6.5-1 1.2-1 .6 0 .3.9-.7 2-1.5 1.6-1.5 2-.3 2 .8 0 1.8-.3 2.2-.7 1-1 6.6-1.3 6.6-.3 0 .7 3.1 1.8 5.4 2 .5 0 1-2 1.1-4.5.2-5.1-1-5.1-1.9 0-.4 2-1.1 3.3-1.7 2.9-.6-.3-.8-1.2-.5-2 .3-.7 0-1.1-.7-.8-.8.3-1.3-.4-1.3-1.6 0-1.2.7-2 1.7-2 .9 0 2.2-.7 2.9-1.5.7-.8.9-1.5.5-1.5s-.2-.6.4-1.4c.9-1.1.8-1.7-.8-2.8-2.7-1.9-2.2-9 .9-15 .6-1.1.5-1.8-.2-2-1.7-.6 3.5-5.4 5.5-5 .9.2 1.7.9 1.7 1.5 0 .7.4.6 1-.3.9-1.3 1.1-1.3 2 0 .6 1 1 1.1 1 .2 0-.6.6-1.2 1.3-1.2 2.1 0 5.5-4.2 4-4.7-.7-.3-1.3-1.1-1.3-1.8s-.6-1.5-1.3-1.8c-.9-.3-.9-.8-.1-1.7 1.3-1.3-.9-8.8-3.8-13.1-1.3-2-1.9-2.2-3.5-1.3-1 .7-1.7 1.9-1.5 2.8.5 2.7-1.5 1.8-6.8-3.1-5.8-5.4-9.4-7.7-13.2-8.6-1.7-.5-3.6-2.2-5.1-4.8-1.4-2.2-2.8-4.1-3.3-4.1s-1.1-.2-1.4-.5c-.3-.4.1-.3.8.1.7.4 1.2.1 1.2-.8 0-.8-.9-1.8-2.1-2.1-2.2-.7-3.3-.1-3.5 1.8 0 .7-.2 2-.2 3.1-.2 1.3-.8 1.7-2.2 1.3-2.4-.6-5.3 2-4.6 4 1 2.4-.5 6.4-2.7 7.2-2.8 1.1-6.9-1-6.3-3.2.5-2.2-2.1-2.8-9.9-2.4-7.1.5-8.5.1-8.5-2.2 0-1-1.2-2.3-2.6-2.9-1.8-.9-2.4-1.7-1.9-3.1.8-2.7-1.3-3.7-3-1.5-1 1.3-1.4 1.5-1.5.5 0-1.8-4 3.3-4 5.1 0 2.1-7 7.9-9.4 8-3.8 0-14.6 3.1-14 3.9.3.5-.1.9-.9.9s-2.2 1.1-3.1 2.5c-1.4 2.2-2 2.4-3.7 1.4-1.7-.9-2-1.7-1.6-4.5.8-4.6 4.8-12.3 9.6-18.4 2.3-2.9 4.1-6 4.1-7 0-.9.8-2.8 1.8-4.1 3-3.9 3.4-5.8 1.1-5.2-1.6.5-1.9 0-1.9-3.3 0-3-.3-3.5-1.2-2.6-.7.7-2 1.2-3 1.2s-1.8.5-1.8 1.1c0 1-3.7 5.4-8.6 10.3-1.1 1.2-2.4 3.4-2.8 5-.4 1.6-1.5 3-2.6 3.3-1.1.3-2 1.2-2 2s-1.7 4-3.7 7.1c-2.1 3.1-4.3 6.9-4.9 8.3-.6 1.4-2.3 3.5-3.8 4.6-1.4 1.2-2.6 3-2.6 4.2 0 1.2-.4 2.1-1 2.1-.5 0-1.2 1.1-1.6 2.5-.3 1.4-1.4 2.5-2.3 2.6-1 0-1.1.2-.4.6 1 .3 1 1 .2 2.4-.5 1.1-.7 2.3-.4 2.8.3.5-.9 2.1-2.6 3.4-3.1 2.4-3.1 2.5-1.1 3.6l2.1 1.1-2.1 2.5c-1.2 1.4-2.6 2.5-3.2 2.5-.6 0-1.9 1.4-2.8 3-1.7 2.9-1.6 3 .3 3 3 0 1.6 3.8-2.8 7.6-2.3 2-3.1 3.3-2.3 3.6 1 .3 1 1-.1 3.4-1 2.1-2.3 3-4.4 3.2-1.6.2-3.3.9-3.7 1.5-.6.9-1.2.9-2.8 0-2.9-1.9-3.8-1.6-3.5 1 .2 2-.1 2.3-2.1 1.9-1.3-.2-2.4-.8-2.4-1.3s-1.3-1.5-2.9-2.3c-2.7-1.5-3.1-1.4-6.5.9-2 1.3-3.6 2-3.6 1.5 0-.6 0-1.3-.1-1.8 0-.4 1-1 2.3-1.4 2.1-.5 2.1-.6.2-.7-1.1-.1-2.5-.6-3.2-1.3-.6-.6-2.5-1.1-4.2-1-3.5.1-4.1-1.5-.8-2 1.3-.2 2.4-1.1 2.6-2.2.3-1.4 0-1.7-1.3-1.2-1.5.5-1.6.4-.6-.8.9-1.1.8-1.5-.4-2-.8-.3-1.4-1.1-1.3-1.8.2-.8-.7-1.3-2.4-1.3-3.6 0-5.3-1.9-5.3-5.8 0-2.6-.4-3.3-2.4-3.5l-2.4-.4 2.7-2.3c2.3-2 2.4-2.4 1.1-3.5-.8-.7-1.5-.8-1.5-.2 0 .5-.9 1.2-2 1.5-1.7.4-2 0-2-2.3s.4-2.8 1.9-2.5c1.1.2 2.7-.5 3.7-1.6.9-1 1.3-1.9.8-2-.5 0 .2-.5 1.5-1 1.8-.7 2.8-.6 4.1.6 2.3 2.1 3.3 1.9 2.1-.4-.8-1.5-.7-2 .5-2.5.8-.3 1.2-1 .9-1.6-.3-.5.1-1 1-1 .8 0 2.1-1.2 2.8-2.7.6-1.5 2.3-3.9 3.7-5.3 1.6-1.6 2.5-3.5 2.5-5.3-.1-1.7.6-3.2 1.6-3.8 2.1-1.1 8.4-8.9 7.2-8.9-.5 0-1.9.9-3.1 2-1.2 1.1-2.8 2-3.6 2-.9 0-1.3.6-1.1 1.2.9 2.5-2.3 5.1-6.5 5.3-3.6.2-4 0-3.5-1.6.4-1.1.2-1.9-.3-1.9-.6 0-1.2.6-1.4 1.2-.3.9-1.1.8-3.1-.5-1.4-.9-3.3-1.4-4.1-1.1-.9.3-1.6.1-1.6-.5 0-1.8-3.9 1.1-4.7 3.4-.6 1.6-.9 1.1-1.3-2-.5-4.2-3.5-6.2-4.2-2.8-.3 1.6-.5 1.5-1.7-.5-1.1-2-1-2.6.4-4.2 2.4-2.6.3-4.5-4.7-4.5-4.2 0-4.2-.1-1.2-7.4 1.8-4.2 1.8-4.1-.7-4.1-1.5 0-1.9-.4-1.5-1.6.3-.8-.1-2.2-.9-3-1.7-1.8-2-3.4-.5-3.4.6 0 1-.9 1-2s.7-2 1.5-2 1.5-.5 1.5-1c0-.6-.7-1-1.5-1-2.1 0-1.9-2.6.4-4.9 2.2-2.2 3.1-1.8 3.1 1.5 0 1.3.5 2.6 1 2.9.6.3 1 .2 1-.4 0-1.1 5.9-.4 7.4 1 .5.4 1.4.5 2.1.2.8-.2 1.8.5 2.5 1.6.6 1.2 2 2.1 3 2.1 1.1 0 2 .4 2 .9s2.3 1.2 5 1.6c3.3.5 5 1.2 5 2.1 0 1.8 1.5 1.8 4.5-.2 2.6-1.7 5.5-1.3 5.5.8 0 .7 1.2 1.4 2.6 1.4 1.4.1 3.5 1.1 4.7 2.2 1.2 1.1 3.6 2.7 5.2 3.5 2.7 1.5 2.8 1.6.8 1.7-2.4 0-2.6.4-1.4 3.3.6 1.7.8 1.7 3.2-.2 1.4-1 4.1-2.2 6.2-2.6 2.5-.5 5.4-2.4 9.6-6.6 3.4-3.2 6.4-5.9 6.8-5.9 1.3 0 8.8-7.1 8.5-8.1-.1-.5.9-1.4 2.3-2.1 1.9-.8 2.8-.8 4 .2 1.2 1 1.5 1 1.5-.2 0-.8.7-2.9 1.6-4.7 1.2-2.4 1.9-3 2.7-2.2 1.8 1.8 2.9 1.2 2.2-1.2l-.7-2.2 1.7 2.2c.9 1.3 2.5 2.3 3.6 2.3 1 0 1.9.4 1.9 1 0 .5-1.3 1-3 1-2.5 0-3 .4-3 2.5 0 1.4-.4 2.5-1 2.5-.5 0-1 .4-1 1 0 .5.7 1 1.5 1s1.5.4 1.5.9c0 1.5-1.8 2.3-2.5 1.1-.9-1.4-2.2-1.2-2.9.5-.8 2.3 2.8 3.7 5.8 2.3 1.4-.6 2.6-1.6 2.6-2.2 0-.6 1.4-2 3-3.1s3-2.3 3-2.6c0-.4 1.8-2.5 4.1-4.7 2.2-2.3 3.8-4.6 3.4-5.2-.3-.5.1-1 1-1 1 0 1.5-.5 1.2-1.4-.3-.8.5-1.9 1.8-2.6 1.2-.7 3-2.9 3.9-4.9 3-6.4 4.1-8.1 5.3-8.1.7 0 1.3-.9 1.3-2 0-1.3.7-2 1.9-2 1.4 0 1.8-.5 1.4-1.9-.2-1 .3-2.6 1.3-3.5 1.6-1.6 1.5-1.9-1-4.5-1.4-1.5-2.6-3.4-2.6-4.2 0-1.9 2.8-10.4 5-15.4 1.1-2.2 2.1-4.8 2.4-5.8.3-.9 1.6-1.7 2.8-1.8 1.9-.1 1.7-.3-.8-1-2.2-.6-3.7-2-4.8-4.3-1.8-3.9-2-5-.6-4.1.6.4 1-.6 1-2.4 0-1.6.5-3.3 1-3.6 2-1.2 1-4.3-1.7-5.3-4-1.5-8.7-5.7-7.9-7 .3-.6 2-1.3 3.6-1.7 5.3-1.2 3.2-2.5-3-1.9-4 .4-6 .2-6-.6 0-.6-1-.2-2.2 1-1.3 1.2-3.3 1.9-4.7 1.8-1.7-.2-2.5.2-2.3.9.4 2.3-2.6 1.4-4.6-1.4-1.6-2.3-2.2-2.5-3.5-1.5-.8.7-3.2 1.3-5.3 1.3-7.9.2-8.1.1-8.8-3.6-.4-1.9-1.1-3.5-1.6-3.5-.6 0-1-.6-1-1.4 0-2.5-8 .2-9.1 3-.4 1.3-1 2.4-1.1 2.4-.2 0-1.8-.4-3.6-.9-1.7-.5-3.2-.7-3.2-.3 0 1.1-8.2 1.3-9.4.3-2.3-1.8-7.2-2.2-10.1-.7-2.1 1.1-3.2 1.2-4.2.4-.9-.7-1.7-.7-2.8.2-1.1.9-1.9.9-2.8.2-.7-.6-1.8-.8-2.4-.4-1.4.9-10.5.8-11.9 0-.9-.6-7.5 5.8-6.7 6.5.2.2-.4 1-1.3 1.8-1.3 1-1.8 1.1-2.1.2-.3-.8-1.5-.5-4 1-2.3 1.3-5 2-7.4 1.8-2.9-.1-3.9.2-3.9 1.3 0 .8-1.6 2-3.7 2.7-3.1 1-3.8.9-4.9-.5-1.4-2-.7-5.5 1.2-6.3.7-.2 1-1.1.7-1.9-.3-.8.1-1.4 1.1-1.4.9 0 1.3-.6 1-1.4-.3-.7.2-1.6 1-1.9.9-.4 1.6-1.5 1.6-2.6 0-2.2 2-4 2.1-1.9 0 .7.5.1 1-1.4.6-1.5 2-2.9 3.5-3.2 1.3-.4 4.6-2 7.3-3.6 2.6-1.7 5.3-3 6-3 .6 0 3.3-1.1 5.9-2.4 2.6-1.3 7.2-2.9 10.2-3.6 3-.7 7-1.9 8.8-2.8 2.8-1.2 4.2-1.3 8.4-.4 6 1.4 13.8 1.6 13.8.3 0-1.4-5.9-4.1-8.7-4.1-1.3 0-3.2.4-4.2.9-.9.5-2.3.6-3 .1-1-.6-.8-.9.8-1.5 1.1-.3 2.1-1 2.1-1.5 0-1.9-2-6-2.9-6-.6 0-.8.7-.5 1.5.7 1.7-1.1 2.1-2.2.4-.8-1.3-5.1-.3-7.1 1.7-.9.8-2.2 1.3-3.1.9-.8-.3-2.1 0-2.8.6-1 .8-1.8.6-3.5-1l-2.2-2 2.7-1.1c3.6-1.3 3.5-1.3 5.8 1.2 1.1 1.3 1.6 1.7 1.2.9-.3-.7 0-1.7.7-2.2 1-.6 1.1-.9.2-1-1.8-.2-2.4-.4-6.1-2.1-3.6-1.6-3.2-3.1.6-2.1 1.7.4 2.3.2 1.8-.6-.4-.6-.1-1.1.8-1.1s1.6-.6 1.6-1.3c0-.7.8-1.3 1.8-1.4.9 0 6-.8 11.2-1.7 5.2-.9 12.2-1.6 15.5-1.6 3.3 0 8.9-.9 12.5-2 3.6-1.1 8-2 9.8-2 1.7 0 3.2-.5 3.2-1 0-1.6-2.9-2.3-4.4-1.1-1 .8-2.1.8-4.1.1-2.2-.8-3.1-.7-4.5.5-2.1 1.9-6.9 1.9-7.6 0-.4-.8-1.5-1.5-2.6-1.5-1.4 0-1.8.5-1.4 1.5.3.8.2 1.5-.3 1.5s-1.4-.7-2.1-1.5c-1.8-2.1-4.1-1.9-3.3.2.6 1.6.5 1.6-1.1.4-1.3-1.1-1.4-1.6-.4-2.2 1.8-1.1.7-1.8-3.5-2.1-3.5-.2-5.4-1.8-2.2-1.8 1.3 0 1.3-.3.3-2-1.5-2.4-2.8-2.6-2.8-.5 0 .8-.5 1.5-1.1 1.5-.6 0-.9-.7-.6-1.5.4-.8.2-1.7-.4-2.1-.6-.3-.8-1.2-.5-2 .4-1.1.1-1.2-1.2-.5-1 .5-3.7.7-6 .4-2.7-.4-4.2-.2-4.2.5 0 .6-.7.9-1.5.6-.8-.4-1.5-.2-1.5.3 0 1.6 2.2 3.2 3.9 2.6 1.2-.4 1.3-.2.3.4-.7.6-1 1.7-.6 2.8.6 1.5.4 1.7-1 1.2-1.3-.5-1.7-.3-1.3.6.3.9-.5 1.3-2.8 1.4-2.9.1-3.3-.2-3.1-2.3.1-1.6.6-2.2 1.5-1.9 1 .4 1.2-.2.8-2.5-.4-1.6-.2-3 .3-3s.7-.7.4-1.5c-.4-.8-1.3-1.5-2.1-1.5-2.9 0-.8-3.4 2.7-4.2 4.5-1.1 14.7-2.9 18.5-3.3 1.7-.2 4.1-.6 5.5-.9 1.4-.3 4.5-.8 7-1.2 2.5-.4 5.2-1.2 6-1.9 2.2-1.8 10.6-2.6 25.8-2.6 13.6.1 17.7-1.3 7.5-2.4-3.2-.3-6.8-1-7.9-1.5-1.4-.5-2.6-.4-3.3.3-.9.9-1.6.9-3 0-1.1-.7-2.3-.8-3.2-.2-.8.5-2.7.9-4.4.9-1.6 0-5.4 1-8.3 2.2-4.5 1.9-5.6 2-7.3.9-1.5-.8-2.4-.9-3.3-.2-.9.8-2.5.5-5.5-1-2.4-1.1-4.5-1.8-4.8-1.5-.3.3.2.8 1.1 1.2 2.3.9 2 2.7-.4 1.9-1.4-.4-1.8-.2-1.5.7.4 1-.5 1.2-4 1-2.5-.2-4.5-.9-4.5-1.4 0-.6.7-.8 1.5-.5.8.4 1.7.2 2-.3.7-1.1.4-1.2-3.7-1.4-2.3-.2-2.5 0-1.5 1.3 1 1.2.8 1.3-1.6.7-2.6-.6-2.8-.5-2.2 1.4.5 1.4.2 2-.9 2-1.5 0-2-1.1-1.7-3.8.1-.6-.3-1.2-.9-1.2-.5 0-1 .4-1 1 0 1.9-2.1 1-2.9-1.2-.6-1.6-1-1.8-1.6-.8-.5.9-.4 1.5.3 1.8 1.4.4 1.6 2.2.3 2.2-.5 0-1.7-.7-2.5-1.6-.9-.8-1.6-1.1-1.6-.6 0 .5-1.1 1.3-2.5 1.6-1.4.4-2.5 1.1-2.5 1.6s.6.7 1.3.4c.8-.3 2 .3 2.8 1.2 1.3 1.6 1.1 1.7-2.5 1.1-3.6-.6-3.8-.5-3.4 1.8.4 1.8 0 2.6-1.3 3-1.1.4-1.9 1.1-1.9 1.6s-.4.9-1 .9c-.5 0-1-.7-1-1.5 0-1.6-2.7-2-4.8-.6-.7.4-1.2 1.2-1.1 1.7.6 3.6-.2 4.4-4.1 4.2-2.2-.2-4-.6-4-1.1 0-.4.5-.7 1-.7.6 0 1-.7 1-1.5 0-1.3 1.1-1.9 3.2-1.6.8.1.4-4.7-.5-5.6-.4-.4-1.4.2-2.2 1.3-.8 1-1.5 1.5-1.5 1 0-.6 1.2-2.3 2.7-3.8 1.5-1.5 2.2-2.8 1.5-2.8-1.7 0-7.3 6.3-6.7 7.7.4 1.3-.7 1.7-3.2 1.4-.7-.1-1.3.5-1.3 1.4 0 .8-.7 1.5-1.5 1.5-2 0-1.9 1.7.4 4.6 1.5 1.9 2 2.1 2.5.9.3-.8 1.3-1.5 2.3-1.5 1.7.1 1.7.1 0 1.4-1.2.9-1.4 1.6-.7 2.1.5.3.8 1 .5 1.5-.8 1.3-5.5-1-5.5-2.7 0-.9-.8-1.1-2.5-.7-1.9.5-2.5.2-2.5-1 0-.9-.4-1.6-1-1.6-1.8 0-1-2.2 1-2.7 1.3-.4 1.9-1.1 1.5-2.2-.5-1.8 3.6-6.4 9.9-11.2 3.7-2.7 3.7-2.9 1.4-2.9-1.7 0-2.7.7-3.1 2-.3 1.1-1.2 2-2.1 2-.9 0-1.6.4-1.6 1 0 .5-.5 1-1.1 1-.7 0-.9-1.1-.5-3 .5-2.8.4-3-1.5-1.9-1.6.8-1.8 1.4-1 2.2 1.5 1.5 1.4 4-.1 3.1-.8-.5-.9 0-.5 1.5.3 1.4 0 2.4-.9 2.8-.8.3-1.4 1.1-1.4 1.9 0 .8-1.1.2-2.8-1.4-1.6-1.5-2.7-3.4-2.5-4.3.3-.9-.5-2-1.9-2.6-1.9-.8-2.3-1.7-2.3-6.7l-.1-5.7 2.8 3c3.2 3.5 3.8 3.6 5.7 1.8 1.1-1 1.3-.9.8.5-.4 1-.2 1.8.3 1.8 1.7 0 1.1-2.8-.7-3.9-1.6-.9-1.6-1.2-.3-2.1 1.2-.8 1.3-1 .1-1-.8 0-2.3.7-3.3 1.7-1 .9-1.8 1.2-1.8.7 0-1.4 1.6-3.6 2.6-3.4.5.1 1-.3 1.2-.9.2-.6-.7-1.1-2-1.2-2.2-.1-2.2-.2.4-1.2 3-1.2 4.6-3.7 2.4-3.7-.8 0-1.6.6-1.9 1.2-.2.7-.7 1.1-1 .8-.3-.3 0-3.2.7-6.5.8-3.2 1.2-6.4.9-7.1-.2-.6 0-1.5.6-1.9 1.5-.9 1.4-6.2-.1-6.8-.9-.3-.6-1.3 1-3.3 1.2-1.6 2.6-3.8 3.1-4.9.5-1.2 1.6-2.7 2.6-3.5 1.4-1.2 1.8-1.2 2.6.1.8 1.1.9.9.4-.7-.3-1.3.2-3 1.3-4.4 1.5-1.9 2.2-2.1 4-1.1 3.3 1.7 4.5 1.4 4-1.3-.4-1.7-.1-2.3.9-1.9.7.3 1.3.1 1.3-.3 0-.5 1.5-1.5 3.3-2.3 1.7-.8 3.5-1.9 4-2.5.4-.7 1-.8 1.5-.1.4.5 1.4 1 2.2.9 2-.1 7.3-2.6 8.5-4 1.7-2 5.5-2.7 5.5-1.1 0 1.5 3.7 3 5.2 2.1 1.3-.9.9-2.4-.7-2.4-.8 0-1.5-.5-1.5-1 0-.6 1.5-1 3.4-1 2.7 0 3.9-.7 5.6-3 1.5-2.1 3-3 4.9-3 2.5 0 2.8-.4 2.7-3l-.1-3H0v24.4zM459 5c0 .5-.6 1-1.4 1-.8 0-1.8-.5-2.1-1-.3-.6.3-1 1.4-1 1.2 0 2.1.4 2.1 1zm6.5 9.3c1.1.8 1.4 1.6.8 2-.6.4-1.8-.2-2.8-1.3-2.1-2.3-.8-2.7 2-.7zm-50 35.7c.3.5.1 1-.4 1-.6 0-1.1-.5-1.1-1 0-.6.2-1 .4-1 .3 0 .8.4 1.1 1zm-30.9 10.5c2 1.9.4 2-2.2 0-1.2-.9-1.4-1.4-.6-1.5.7 0 2 .7 2.8 1.5zm12.2.6c-.2.6-.8 1-1.3 1s-1.1-.4-1.3-1c-.2-.6.4-1.1 1.3-1.1s1.5.5 1.3 1.1zm8.8 4.6c0 1.6.3 3.3.7 3.9.5.9-3.4 3.4-7.5 4.8-1.1.3-1.8 1.5-1.8 3.1 0 1.5.4 2.4 1 2 .6-.3 1-.2 1 .4 0 .5-.6 1.1-1.2 1.4-1 .3-1 .9 0 2.6 1 1.8 1 2.6.1 3.7-.8 1-.9 1.8 0 2.7.6.8.9 1.6.6 1.8-.2.3.2 2.9 1 5.9.8 3 1.5 5.5 1.5 5.6 0 .1-1.4.1-3 0-2-.1-2.9-.5-2.5-1.4.3-.8-.5-1.2-2.4-1.2-2.2 0-2.7-.4-2.7-2.3.1-1.2.7-2.7 1.5-3.3 1.2-.9.9-1.2-1.1-1.7-1.9-.5-2.5-1.2-2.1-2.5.3-1.5-.2-1.8-3.1-1.9-2-.1-3.3.3-3 .8.3.5-.2.9-1 .9-2.3 0-.8-2.7 1.8-3.4 4.1-1 6.9-4.2 6.4-7.5-.3-1.9 0-3.2.9-3.5 1.5-.6 1.8-6.2.3-7.1-.5-.3-1-1.2-.9-1.8 0-.7.7-.2 1.6 1 .8 1.3 2.4 2.3 3.4 2.3 1.9 0 2.5-1.1 1.2-2.4-2.8-2.7 1.1-6.5 6.2-6.1 2.6.2 3 .7 3.1 3.2zm7 1c-.8.8-3.6-1-3.6-2.5 0-1.3.3-1.2 2 .3 1.1 1 1.8 2 1.6 2.2zm6 2c-.4.4-1.1.1-1.6-.7-1.6-2.5-1.1-3.5.7-1.7.9.9 1.3 2 .9 2.4zm-7.6 5.2c0 1.7-1.8 2.1-2.4.6-.3-.9 0-1.5.9-1.5.8 0 1.5.4 1.5.9zM63 78c0 1-6.1 5.2-6.7 4.6-.8-.8 1.2-3.9 3.1-4.6 2.9-1.2 3.6-1.2 3.6 0zm341.3-.3c-.7.2-1.9.2-2.5 0-.7-.3-.2-.5 1.2-.5s1.9.2 1.3.5zm12.7 2.9c0 .8-.4 1.2-1 .9-.5-.3-1-1-1-1.6 0-.5.5-.9 1-.9.6 0 1 .7 1 1.6zM73.5 83c.3.5.1 1-.4 1-.6 0-1.1-.5-1.1-1 0-.6.2-1 .4-1 .3 0 .8.4 1.1 1zm341.4.3c1.9 2.3 4.2 8.7 3.1 8.7-.5 0-1-.8-1-1.8s-1.1-2.9-2.5-4.2c-1.4-1.3-2.5-2.7-2.5-3.2 0-1.2 1.6-1 2.9.5zm-4.9 2.8c0 2-1.5 2.6-2.5.9-.9-1.5.3-4.3 1.5-3.5.5.3 1 1.5 1 2.6zM68.7 87.2c-.8 1.3-3.4 4.3-5.6 6.8-2.3 2.5-4.9 5.8-5.7 7.3-.9 1.6-1.8 2.6-2.1 2.3-.8-.7 5.7-10.5 10.4-15.7 3.8-4.1 5.7-4.6 3-.7zm9.2 5.9C77 94.8 73 94.7 73 93c0-2.8 1.2-3.7 3.5-2.6 1.8.8 2.1 1.5 1.4 2.7zM54 92.2c0 1.9-1.8 4.4-2.5 3.6-.4-.3 0-1.5.7-2.7 1.5-2.4 1.8-2.6 1.8-.9zm24 6.9c0 .5-.4.9-1 .9-.5 0-1-.7-1-1.6 0-.8.5-1.2 1-.9.6.3 1 1 1 1.6zm43.5-1.1c-2.7 1.2-4.3 1.2-2.5 0 .8-.5 2.2-.9 3-.9 1 0 .8.3-.5.9zm282 0c.3.5.2 1-.4 1-.5 0-1.3-.5-1.6-1-.3-.6-.2-1 .4-1 .5 0 1.3.4 1.6 1zm-336.3 3.2c-.7.7-1.2.8-1.2.2 0-1.4 1.2-2.6 1.9-1.9.2.3-.1 1.1-.7 1.7zm5.1-1.6c.7.8-.3 3.4-1.3 3.4-.5 0-.8-.9-.7-2 .1-2 .8-2.5 2-1.4zm43.6 1.1c-1.3 1.5-1.1 1.6 1.4.9 1.6-.4 2.7-.2 2.7.4 0 .5-1.8 1-4.1 1-3.2 0-4.6.6-6.9 3.1-1.5 1.7-3.3 2.8-3.9 2.5-.6-.4-1.1-.1-1.1.7 0 1.6-2.5 4-4.4 4.3-.6.1-1.2-.9-1.2-2.2-.2-1.9.3-2.4 2.1-2.4 2.5 0 4.1-2.6 2.2-3.4-.7-.2-.2-.5.9-.5 1.2-.1 3.3-1 4.7-2.1 1.4-1.1 3.2-2 4-2 .9 0 1.9-.5 2.2-1 .3-.6 1.1-1 1.7-1 .6 0 .5.7-.3 1.7zm294.9 5.8c-.7.8-3.8-2.3-3.8-3.8 0-.6 1-.2 2.2 1 1.2 1.3 1.9 2.5 1.6 2.8zm-285.8 0c1 1.2 1 1.5-.3 1.5-.8 0-1.7-.7-2.1-1.5-.3-.8-.2-1.5.3-1.5s1.4.7 2.1 1.5zm24 1.1c0 1.6-2.6 1.9-3.5.4-.3-.6-.4-1.4 0-2 .8-1.3 3.5-.1 3.5 1.6zm-69 .1c0 1 .9 3.3 2.1 5.2 1.6 2.6 1.8 3.6.8 4.2-.7.4-1.8.5-2.4.1-.5-.3-.4.1.2 1 .7.8.9 1.8.5 2.3-.4.4.3.4 1.5.1 1.8-.6 2-.4 1.6 1.3-.6 2.2-3.2 4.9-3.4 3.5-.1-.5-.2-1.6-.3-2.4 0-.9-1-1.4-2.3-1.3-1.7.2-2.3-.4-2.8-2.8-.6-2.5-.9-2.8-2.1-1.8-.8.6-1.7.9-2 .6-.4-.3-1.5.4-2.6 1.6-1.1 1.2-1.6 1.5-1.1.6.4-.9 2.6-3.8 4.7-6.3 2.8-3.2 4.2-4.2 4.8-3.3.5.7.8.2.8-1.6 0-1.5.5-2.7 1-2.7.6 0 1 .8 1 1.7zm34-.7c0 .5-.2 1-.4 1-.3 0-.8-.5-1.1-1-.3-.6-.1-1 .4-1 .6 0 1.1.4 1.1 1zm11.6 3c.8 0 1.4.6 1.4 1.4 0 .9-.7 1.2-2 .9-1.4-.4-2 0-2 1 0 .9-.8 1.5-1.9 1.4-1.5-.1-1.7-.4-.9-1.4.7-.9.6-1.4-.6-1.9-2.9-1.1-1.7-2.7 1.5-2 1.7.3 3.8.6 4.5.6zm9.4 2.5c0 1-4.1 1.1-4.9.1-.8-1-.3-1.1 1.9-.8 1.7.2 3 .5 3 .7zm-31.8 13.3c.3 1.1-.2 2.3-1.3 3-2.7 1.7-2.9 1.5-1.6-1.8 1.3-3.4 2.3-3.8 2.9-1.2zm-25.7.2c.3.5-.1 1-.9 1-.9 0-1.6-.5-1.6-1 0-.6.4-1 .9-1 .6 0 1.3.4 1.6 1zm-5.5 6.4c0 .3-.4.8-1 1.1-.5.3-1 .1-1-.4 0-.6.5-1.1 1-1.1.6 0 1 .2 1 .4zm10 2.6c0 .5-.5 1-1.1 1-.5 0-.7-.5-.4-1 .3-.6.8-1 1.1-1 .2 0 .4.4.4 1zm2 2.5c-.7.9-1.5 1.3-1.7 1.1-.6-.6 2-3.6 2.6-3 .2.2-.2 1-.9 1.9zm46-2.1c0 .3-.4.8-1 1.1-.5.3-1 .1-1-.4 0-.6.5-1.1 1-1.1.6 0 1 .2 1 .4zm-55 1c0 .3-.4.8-1 1.1-.5.3-1 .1-1-.4 0-.6.5-1.1 1-1.1.6 0 1 .2 1 .4zm51 7.1c0 .7-6.3 4.5-7.4 4.5-.6 0-.1-.7 1-1.5 1-.8 1.5-1.5.9-1.5-1.2-.2 2.5-1.8 4.3-1.9.6-.1 1.2.1 1.2.4zm-48 7.4c0 .5-.7 1.2-1.6 1.5-1.4.5-1.5.4-.4-.9 1.4-1.7 2-1.9 2-.6zm-.3 3.7c-.3.3-1.2.4-1.9.1-.8-.3-.5-.6.6-.6 1.1-.1 1.7.2 1.3.5zm.3 2.6c0 1.5-1.8 1.7-3 .3-.9-1.1-.8-1.4.9-1.2 1.2.1 2.1.5 2.1.9zm34 20.8c0 1.3-.9 2.2-2.5 2.6-1.3.3-2.4.9-2.3 1.3.3 1.5-1.6 4.1-3 4.1-1.2 0-1.3-.3-.5-1.1.6-.6.9-1.8.6-2.5-.3-.8 0-1.4.6-1.4s1.1-.7 1.1-1.5c0-1.5 2.6-3.4 4.8-3.5.6 0 1.2.9 1.2 2zm251 20.4c0 2.3-1.1 4.6-2.3 4.6-.6 0-2.2 1-3.5 2.2-1.4 1.3-2.3 1.8-2.1 1.3.3-.6 1-2.1 1.6-3.5.6-1.4 1.4-3.3 1.7-4.3.6-2 4.6-2.3 4.6-.3zm-276.5.6c-.3.5-1.1 1-1.6 1-.6 0-.7-.5-.4-1 .3-.6 1.1-1 1.6-1 .6 0 .7.4.4 1zm235.2 2.6c.2 1.6.3 3.8.3 4.9 0 1.4.8 2.1 2.2 2.2 1.2.1 2.8 1 3.7 1.9 1.5 1.5 1.4 1.6-.9.9-1.4-.4-3.3-.7-4.2-.8-.9-.1-1.4-.5-1.2-.9.3-.4-.6-.8-2-.8-3 0-4-1.3-2.7-3.7.5-1 1.2-3.1 1.6-4.6.7-3.6 2.9-3 3.2.9zm108.4-.3c-.1 1.2-1.5.9-1.9-.4-.3-.6.1-1 .8-.8.6.3 1.1.8 1.1 1.2zm46.3 9.3c1.7.6 2.3 3.4.8 3.4-.5 0-1.7-.9-2.7-2-1.8-2-1.1-2.5 1.9-1.4zM363 212c0 .5-.4 1-1 1-.5 0-1-.5-1-1 0-.6.5-1 1-1 .6 0 1 .4 1 1zm-4 1c0 .5-.4 1-1 1-.5 0-1-.5-1-1 0-.6.5-1 1-1 .6 0 1 .4 1 1zm-57.7 1.7c-.7.2-1.9.2-2.5 0-.7-.3-.2-.5 1.2-.5s1.9.2 1.3.5zm32.5 2.3c1.1 0 2.4-.5 2.7-1 .4-.6 1.1-.7 1.7-.4 2 1.3 7.8 1.6 7.8.4 0-.7.8-.9 2-.5 1.1.4 2 .2 2-.4 0-.6.5-1.1 1-1.1.6 0 1 .9 1 2.1 0 1.5-.4 1.9-1.6 1.5-.9-.4-2.3-.1-3 .5-.7.6-1.8.8-2.3.5-.5-.4-1.2-.3-1.4.1-.4.7-7.3.8-13.3.4-1.3-.1-2.5-3.7-1.6-4.6.4-.3 1.2.1 1.8.9.6.9 2.1 1.6 3.2 1.6zm22.2-2c0 .5-.4 1-1 1-.5 0-1-.5-1-1 0-.6.5-1 1-1 .6 0 1 .4 1 1zm122.8 2.5c1.7 3.7 1.5 4.1-.8 1.2-2.2-2.7-2.5-3.7-1.2-3.7.5 0 1.4 1.1 2 2.5zM326 218c0 .5-.5 1-1.1 1-.5 0-.7-.5-.4-1 .3-.6.8-1 1.1-1 .2 0 .4.4.4 1zm94.6 1.7c-1 1-1.9-.5-1-1.8.6-1.1.8-1.1 1.2 0 .2.7.1 1.5-.2 1.8zm42.4 8.2c0 .6-.4 1.2-.9 1.5-1.3.8-4.2-.4-3.5-1.5.7-1.2 4.4-1.2 4.4 0zm1 4.6c0 .8-.4 1.5-1 1.5-.5 0-.7-.7-.4-1.5.4-.8.8-1.5 1-1.5.2 0 .4.7.4 1.5zm-287 .3c0 1.2-7.1 3.3-8.3 2.5-1.6-1 2.4-3.3 5.5-3.3 1.5 0 2.8.4 2.8.8zM65 235c0 .5-.7 1-1.5 1s-1.5-.5-1.5-1c0-.6.7-1 1.5-1s1.5.4 1.5 1zm99.8.2c-.3.7-2.2 1.4-4.4 1.6-3.7.3-3.8.2-1.9-1.2 2.4-1.9 6.8-2.1 6.3-.4zm151.7-.2c.3.5-.1 1-.9 1-.9 0-1.6-.5-1.6-1 0-.6.4-1 .9-1 .6 0 1.3.4 1.6 1zm-245 3c.3.5-.1 1-.9 1-.9 0-1.6-.5-1.6-1 0-.6.4-1 .9-1 .6 0 1.3.4 1.6 1zm110.8 2.1c1.5 1.6 1.6 2.3.6 3.5-.9 1.1-.8 1.8.5 3.2 2.2 2.6 2.1 5.1-.3 4.5-1.7-.4-2.6 1.3-3.5 6.9-.3 1.6-1.9 2.1-6.3 1.9-4.4-.1-6.2.8-6.3 3.3 0 .6.6.1 1.4-1 1.4-1.8 1.6-1.8 3.3-.2 1.5 1.6 1.5 2 .3 3.2-.8.8-3.5 1.6-5.9 1.7-4.1.3-4.5.1-5.5-2.6-.6-1.7-1.8-3-2.6-3s-1.6-.8-1.8-1.8c-.2-1 .3-1.7 1.3-1.7 1.3 0 1.4-.4.5-2.1-.9-1.6-1.4-1.8-2.5-.9-.8.6-3.4 1.2-5.9 1.3-2.5.1-4.6.5-4.6.9 0 .5-.4.8-1 .8-.5 0-1-.5-1-1.1 0-.7-.8-1.8-1.7-2.5-1.6-1.2-1.3-1.4 2.5-1.2 2.3.1 4.7-.3 5.4-1 .9-.9 1.6-.8 2.9.3 1.5 1.4 1.8 1.3 3.4-1.2 2.3-3.6 8.4-9.1 11-10 1.1-.3 2.5-1.4 3.2-2.3 1.7-2.3 10.1-1.6 12.6 1.1zM283 239c0 1.1-.2 2-.3 2-.2 0-1.2-.9-2.2-2-1.8-1.9-1.7-2 .3-2 1.5 0 2.2.6 2.2 2zm179 6.4c0 1.1-1.9 1.5-2.5.6-.3-.5.1-1 .9-1 .9 0 1.6.2 1.6.4zm1.3 9.9c2.1 1.6 4.7 4.7 5.8 6.9 1.9 3.7 1.9 4.1.4 6.5-1 1.4-1.9 5-2.1 7.9-.4 5.9-2 9.9-5.2 12.8-2.1 1.8-2.1 1.8-4-1.3-1.7-2.7-2.1-3-3.2-1.6-.7.8-1.6 1.5-2 1.5-1.1 0-1.9-8.5-1.1-12.2.4-1.8.4-4.7-.1-6.4-.6-2.4-.2-4.7 1.8-10 3.7-9.8 2.8-9.5 9.7-4.1zm-329.1.2c-.5 3-1.8 3.2-3.2.6-.7-1.4-.6-2.1.3-2.4 2.6-1.1 3.4-.6 2.9 1.8zm-40.8 5c-.4.8-.9 1.5-1.3 1.6-.3 0-2.5.2-4.8.5-4.2.4-5.7-.7-2.9-2.3.8-.4 3.3-.9 5.5-1.1 3.3-.2 3.9 0 3.5 1.3zm60.6 0c0 1.6-4.5 2.1-5.4.6-.8-1.2.4-2.1 3.1-2.1 1.4 0 2.3.6 2.3 1.5zm45 3.9c0 .3-.4.8-1 1.1-.5.3-1 .1-1-.4 0-.6.5-1.1 1-1.1.6 0 1 .2 1 .4zm278.7 3.8c.6 1.8 1.7 6.4 2.4 10.2 1.2 6.3 1.2 7.2-.9 13-1.2 3.3-2.2 8.3-2.2 10.9 0 4-.5 5.2-2.9 7.5-7.3 6.7-8 7.2-10.9 6.1-1.4-.6-3.2-1.5-3.9-2.1-1.8-1.5-1.6-5.8.5-9.3 1-1.7 2.4-4.9 3.1-7.3.9-3.4 1.9-4.6 4.1-5.4 4.4-1.5 8.7-8.6 8.8-14.7.1-3.2-.3-5.3-1.3-6.1-1.6-1.3-2-4.2-.8-5.3 1.4-1.5 3-.5 4 2.5zm-322.7.9c0 1.8-.2 1.9-1.5.9-1.5-1.2-1.2-3 .6-3 .5 0 .9 1 .9 2.1zm-66.2 4.5c.2 1.5.1 1.6-.7.5-.8-1.2-1.2-1.2-2.5-.2-1.9 1.6-2.2.1-.4-1.7 1.6-1.6 3.2-1 3.6 1.4zm76.2-.2c0 .3-.4.8-1 1.1-.5.3-1 .1-1-.4 0-.6.5-1.1 1-1.1.6 0 1 .2 1 .4zM411.4 287c-1 1.8-2.3 3-3.6 3-2.5 0-1.9-2.2 1-3.5 1.2-.5 2.2-1.3 2.2-1.7 0-.5.4-.8.9-.8s.3 1.3-.5 3zm-320 .5c-.4.8-.8 1.5-1 1.5-.2 0-.4-.7-.4-1.5s.4-1.5 1-1.5c.5 0 .7.7.4 1.5zm337.9 4.2c.9.3 1.7 1.3 1.8 2.2.1 2.1.5 4.2 1.4 6.3.5 1.4.2 1.8-1.3 1.8-1.1 0-2.6.8-3.3 1.7-1.1 1.5-1.1 1.6.1.5 3.3-2.9 7.9.4 6.5 4.8-.4 1.2 0 2.2 1.1 2.8 1.4.8 1.4 1 .1 1.5-1.8.7-4.2-1.7-3.3-3.2.4-.6.4-2.2 0-3.6-.6-2.4-.8-2.5-2.3-1-1 .8-2 1.5-2.4 1.5-1.1 0-3.9-6.9-3.2-8 .4-.6.1-1.7-.5-2.5-1-1.2-1-1.5 0-1.5.8 0 1.1-.9.7-2.6-.4-2-.1-2.4 1.2-1.8.9.3 2.4.9 3.4 1.1zm-372.7 6.2c1.3 1.4 2.4 2.8 2.4 3.1-.1 1.6-2 3.2-4.2 3.4-2.1.3-2.4 0-2-2.6.3-1.6 0-2.8-.7-2.8-1 0-1.5 1.4-1.2 3.2 0 .5-.5.8-1.3.8-3.7 0-2-8.5 2.1-10.9 1.5-.8 1.9-.6 2.1 1.1.2 1.1 1.5 3.2 2.8 4.7zm366.4-5.5c0 .3-.4.8-1 1.1-.5.3-1 .1-1-.4 0-.6.5-1.1 1-1.1.6 0 1 .2 1 .4zM95.5 303c-.5.8-1.1.8-1.7.2-.6-.6-.7-1.6-.3-2.2.5-.8 1.1-.8 1.7-.2.6.6.7 1.6.3 2.2zm183.2.6c-.3.3-1.2.4-1.9.1-.8-.3-.5-.6.6-.6 1.1-.1 1.7.2 1.3.5zM54 309.9c0 3.5-.8 4.3-3.1 3-2.1-1.1-2.5-3.9-.8-5.6 1.8-1.8 3.9-.3 3.9 2.6zm373 .5c0 .8.7 1.6 1.5 2 2.1.8 1.9 3.3-.4 4.5-2.4 1.3-3.3.4-2-2 .5-1.1.6-1.9.1-1.9-.6 0-1.2-.9-1.5-2-.3-1.3 0-2 .9-2 .8 0 1.4.6 1.4 1.4zm48.4 5.5c.3.5.9 6.3 1.2 12.9l.7 12-3.7 1.7c-2 1-3.6 2.3-3.6 3 0 1.3-3 1.3-6.7.1-2.6-.9-4.2-7.8-2.4-10 1.6-1.9 5-2.6 5.9-1.3.4.7 1.6 1.2 2.7 1.2 1.2 0 2.1.9 2.5 2.5l.6 2.5 1.3-2.3c.9-1.8 1-2.7.1-3.7-.7-.8-.9-1.9-.5-2.5.3-.5.2-1-.4-1-.6 0-.8-.6-.5-1.3.2-.7-.2-3.1-1-5.3-1.2-3.4-1.2-4.4 0-6.7 1.5-2.8 2.8-3.4 3.8-1.8zm-372.5 5.7c-1 1.3-1 1.7.1 2.4 1.2.7 1.1 1-.3 1.6-.9.3-1.7 1-1.7 1.6 0 .5.4.7.9.3.5-.3 1.2-.1 1.6.5.3.5-.3 1-1.4 1-1.2 0-2.1.5-2.1 1.1 0 .6-.5.9-1.1.7-.6-.2-1-.7-.9-1.2.1-.5-.4-1.2-1.1-1.7-1-.6-1-1.1 0-2.3.8-.9 1.9-1.6 2.6-1.6.7 0 1.5-.9 1.8-2 .3-1.1 1.1-2 1.7-2 .9 0 .9.4-.1 1.6zm17.7-.5c1.2 2-1.1 2.7-3 .8-1.9-1.9-1.9-1.9.2-1.9 1.1 0 2.4.5 2.8 1.1zm-28.4 3.4c.4 2 .3 2.3-.8 1.4-1.6-1.3-1.9-3.9-.5-3.9.5 0 1.1 1.1 1.3 2.5zm23.8.6c0 .5-.7.9-1.5.9-1.5 0-2-1.2-.9-2.3.8-.8 2.4.1 2.4 1.4zm-20.8 8.7c-.9.7-.8 1.4.8 3.2 1.1 1.3 1.8 2.5 1.5 2.8-.7.7-3.7-.7-3.1-1.6.2-.4.1-1.4-.5-2.2-.6-1.1-.9-1.2-.9-.2 0 .7-.4 1-1 .7-1.5-1-1.2-2.3.8-2.8 2.9-.8 3.8-.7 2.4.1zm14.8.2c0 .5-.4 1-1 1-.5 0-1-.5-1-1 0-.6.5-1 1-1 .6 0 1 .4 1 1zm326 3.5c0 .8-.4 1.5-1 1.5-.5 0-1-.7-1-1.5s.5-1.5 1-1.5c.6 0 1 .7 1 1.5zm-343.3 1.7c0 .7.4 2.2.9 3.2.6 1.6.4 1.8-1 1.3-1-.4-2.1-.7-2.6-.7-.4 0-.7-1.1-.7-2.5 0-1.7.5-2.5 1.7-2.5.9 0 1.7.6 1.7 1.2zm340.3.2c0 .2-.7.6-1.5 1-.8.3-1.5.1-1.5-.4 0-.6.7-1 1.5-1s1.5.2 1.5.4zM105.3 347c.6 0 .2.6-.9 1.4-1.5 1.2-2.1 1.2-3.2.2s-1-1.8.5-4.4l1.8-3.2.3 3c.2 1.7.8 3 1.5 3zm-12.3.4c0 .9-.7 1.2-2 .9-1.1-.3-2-.9-2-1.4 0-.5.9-.9 2-.9s2 .6 2 1.4zm3 9.9c0 .5-.4.5-1 .2-.5-.3-1-1.4-1-2.3 0-1.5.2-1.5 1-.2.5.8 1 1.9 1 2.3zm324.5-1.3c-.3.5-1.1 1-1.6 1-.6 0-.7-.5-.4-1 .3-.6 1.1-1 1.6-1 .6 0 .7.4.4 1zm4.5 2.6c0 .8-.5 1.2-1 .9-.6-.4-.8-1.1-.5-1.6.9-1.4 1.5-1.1 1.5.7zm37.7 5.4c2.3 0 3.5.5 3.9 1.7.3 1 1 2.6 1.5 3.5.5 1 .9 2.4.9 3.3 0 .8 1.4 3 3 4.8 1.7 1.9 3 3.9 3 4.4 0 .5 1.5 2.4 3.2 4.3 7.4 7.9 12.6 22.1 12.9 35 .1 7.8-.2 9.4-4 19.2-3.7 9.3-4.7 10.9-7.9 12.9-12.5 7.6-19 9.8-34.5 11.9-9 1.3-8.1 1.8-16.7-8l-6-6.8 3.6-5.3c9.8-14.6 16.1-26.8 19.7-38.4 2.5-7.8 5.7-24.8 6.3-33.3.8-10.4.8-10.6 4.5-9.8 1.8.3 4.7.6 6.6.6zM294 367c0 .5-.7 1-1.6 1-.8 0-1.2-.5-.9-1 .3-.6 1-1 1.6-1 .5 0 .9.4.9 1zm3 2c-2 1.3-3.3 1.3-2.5 0 .3-.6 1.4-1 2.3-1 1.5 0 1.5.2.2 1zm-88.6.9c.3.4.3 1.1 0 1.4-.8.8-3.4-.3-3.4-1.4 0-1.1 2.7-1.2 3.4 0zM116 371c0 .5-.2 1-.4 1-.3 0-.8-.5-1.1-1-.3-.6-.1-1 .4-1 .6 0 1.1.4 1.1 1zm-3.1 1.4c1 1.2.8 1.3-.8.9-1.2-.3-1.8-.9-1.5-1.4.7-1.2 1-1.1 2.3.5zm43 1c-1.2 1.4-2.6 2.3-3.3 2.2-.6-.2-.8-.1-.3.1.4.3.7 1.2.7 2.1 0 1.2.3 1.3 1.2.4.7-.7 1.5-1.2 1.9-1.2 1 0-.2 4.4-1.5 5.2-.6.4-1.1 1.5-1.2 2.5-.2 3.8-1.6 5.3-4.8 5.2-2.4-.1-2.6-.3-.8-.6 1.9-.4 2.1-.7 1.1-1.9-.6-.8-2.1-1.4-3.3-1.5-2.1 0-2.1 0 .2-1.1 2.2-1.1 3-2.8 1.2-2.8-.5 0-1-1.1-1-2.5 0-1.5.6-2.5 1.4-2.5.9 0 1.2-.7.9-1.9-.3-1.2.2-2 1.6-2.4 1.2-.3 2.1-.1 2.1.4s.5.9 1 .9c.6 0 1-.7 1-1.5s.9-1.5 2-1.5c2 0 2 0-.1 2.4zm56.6-.4c.3.5-.1 1-.9 1-.9 0-1.6.5-1.6 1.1 0 .5-.5.7-1.2.3-.9-.6-.9-.9 0-1.2.7-.2 1-.8.6-1.3-.3-.5.2-.9 1-.9s1.8.4 2.1 1zm63.5 0c0 .5-.4 1-1 1-.5 0-1-.5-1-1 0-.6.5-1 1-1 .6 0 1 .4 1 1zm-163.2 4.3c.2.9-.2 1.7-.9 1.7s-.9-.3-.6-.7c.4-.3.1-1.3-.6-2.1-1-1.3-.9-1.4.3-1 .8.2 1.6 1.2 1.8 2.1zm250.7-1.4c.3.5.1 1.2-.4 1.5-.5.3-1.1-.1-1.5-.9-.6-1.6.9-2.1 1.9-.6zm-138.1 1.7c.5 1.4.4 1.5-.9.4-1.7-1.4-1.9-2-.6-2 .5 0 1.2.7 1.5 1.6zm13.3 3.4c-.2 2.4-.4 2.4-2.3.6-1.1-1.1-1.1-1.6-.1-1.9 2.2-.9 2.6-.7 2.4 1.3zm23 .2c-.3.8-.6.5-.6-.6-.1-1.1.2-1.7.5-1.3.3.3.4 1.2.1 1.9zm-144.1 3.1c.4.4 0 .7-.9.7s-1.8-.4-2.1-.9c-.7-1 2-.9 3 .2zm288.8 1.3c.9.3 1.6 1 1.6 1.5 0 1.4-2.6 1-4-.6-1.3-1.6-.3-2 2.4-.9zM366 387c0 .5-.4 1-1 1-.5 0-1-.5-1-1 0-.6.5-1 1-1 .6 0 1 .4 1 1zm-179.5 1.9c-.3.6-1.1.8-1.7.5-.6-.4-.5-.9.3-1.5 1.6-1 2.3-.4 1.4 1zm-12.1 2.7c.5 1.4.4 1.5-.9.4-1.7-1.4-1.9-2-.6-2 .5 0 1.2.7 1.5 1.6zm9.6 4.6c0 1.2-.5 1-2.9-1.1-1.3-1.2-2-2.5-1.5-3.2.5-.8 1.2-.4 2.5 1.2 1 1.3 1.9 2.7 1.9 3.1zm167.8-3.2c.6 0 1.2.6 1.2 1.4 0 .8 1.6 1.6 4 2 3.8.6 5.7 2.6 2.4 2.6-.8 0-2.2.7-3 1.5-1.7 1.6-4.4 1-4.4-1.1 0-.8-.5-1.4-1.2-1.4-1.7 0-4.8-3.1-4.8-4.8 0-1 .7-1.3 2.3-.8 1.2.3 2.8.6 3.5.6zm-200.2 1c.9 0 1.2.5.8 1.1-.4.7-.7 2.6-.6 4.3 0 1.7-.5 3.4-1.1 3.8-.8.5-.8.8-.1.8 1.6 0 .5 11.2-1.2 12.6-.8.6-1.4 1.6-1.4 2.3 0 .6-.4 1.1-1 1.1-.5 0-1-1.1-1-2.3 0-2.3-3.6-4.9-7-5.1-1.6-.1-1.7-2.1-.7-8.6.3-1.9.6-3.8.6-4.3.1-.4.8-.7 1.7-.7 1.2 0 1.4.3.6 1.2-.7.9-.6 1.7.4 2.6 1.1 1 1.6.9 2.6-.4.7-.8 2.1-2.4 3.1-3.5 1.9-2.1 2.2-3.9.7-3.9-.5 0-1-.5-1-1.1 0-.6.7-.8 1.6-.5.9.3 2.2.6 3 .6zm34.4 0c.8.5 1.1 1.2.7 1.6-.4.4-1.5 0-2.4-.9-1.8-1.8-.8-2.3 1.7-.7zm-4.3 3.6c-.3.3-1.2.4-1.9.1-.8-.3-.5-.6.6-.6 1.1-.1 1.7.2 1.3.5zm123.7 13.3c1 1.5-4.3 1.9-5.5.5-.9-1.1-.6-1.4 1.9-1.4 1.7 0 3.3.4 3.6.9zm109 2.8c-.9 5.3-1.5 5.5-1.2.5.2-2.3.7-4.2 1.1-4.2.4 0 .5 1.7.1 3.7zm-121-1c.6 1.4.9 1.5 1.5.4.6-1 1-1 1.6-.1.4.6-.3 2.2-1.6 3.6-1.7 1.8-2.5 2.1-3.6 1.3-1-.9-1.3-.8-1.3.1 0 .8-1 .9-3 .5-2.3-.5-3.2-.3-3.6 1-.6 1.4-1 1-2-1.5-.8-1.8-1.4-3.3-1.4-3.5 0-.1 2-.8 9.5-3 2.3-.7 3.3-.4 3.9 1.2zm-48.2 5.8c-1 3.7-2.7 3.5-2.8-.2-.2-4.3.6-5.7 2.2-4.1.9.9 1.1 2.2.6 4.3zm-5.8-.7c-.7 2.3-1.9 2.9-2.9 1.2-.8-1.2 1.7-5.2 2.7-4.2.4.4.5 1.7.2 3zm16.5-1.4c1.1.8 1.5.8 1.8-.1.4-1 1-1 2.4-.2 1.1.6 3.3.7 5 .4 2.4-.6 2.9-.3 2.9 1.3 0 2.3-2.8 3.8-3.5 1.9-.6-1.3-7.9-1.7-9.1-.4-1.2 1.2-2.4.8-2.4-.8 0-1.7-1.6-2-2.5-.5-1.1 1.8-2.5 1-2.5-1.5 0-2.2.3-2.4 3.3-1.8 1.7.3 3.8 1.1 4.6 1.7zm21.7-.9c.4.8.1 2.1-.5 2.9-.9 1-.8 1.5.4 2 .8.3 1.5 1.7 1.5 3.3 0 2.2-.2 2.5-1 1.3-.5-.8-1-1.1-1-.5-.1 2.3-2-2.2-2-4.8 0-1.5-.4-2.7-1-2.7-.5 0-1 .7-1 1.6 0 2.3-2.4 1.1-2.8-1.4-.3-1.6.3-2.1 2.5-2.5 1.5-.2 3.2-.5 3.6-.6.4 0 1 .6 1.3 1.4zm118.6.1c-.1.5-1 .9-2 .9-1.3 0-1.6.8-1.4 3l.2 3-2-2.4c-2.4-2.8-2.7-5.3-.5-4.5.8.4 1.5.1 1.5-.5s1-.9 2.3-.7c1.2.1 2.1.7 1.9 1.2zm-243.6 5c.8-.3 1.4.1 1.4.8 0 .7.7 1.9 1.5 2.6.8.7 1.5 2.2 1.5 3.4 0 1.3 1.1 3.3 2.5 4.6 1.4 1.3 2.5 3.3 2.5 4.6 0 1.2.7 2.7 1.5 3.4.8.6 1.4 1.5 1.3 1.8-.5 4.1.5 6.9 3 8.4 1.8 1.2 2.2 1.8 1.1 1.8-.9 0-1.9.6-2.2 1.4-.6 1.5 3.2 5.6 5.1 5.6.7 0 1.2.4 1.2.9 0 1.4-5 .6-6-.8-.4-.7-1-1.2-1.3-1.2-1.1.1-6.5-5.8-5.9-6.4.3-.3-.1-.5-.9-.5-1.5 0-2.1-.9-5.3-7.6-5-10.5-5.6-12.9-4.3-15.2.5-.7.4-1.2-.2-1.2-1.2 0-.9-4.4.4-7.5.9-1.9 1-1.9 1.3-.2.2 1.1.9 1.6 1.8 1.3zm147.5 1.4c.9-1.3 1-1.2.5.2-.8 2.5 1.1 3.2 2.4.8 1.3-2.4 5.3-2.8 4.4-.5-.4.8-.1 1.5.5 1.5s.8.7.5 1.5c-.4.9 0 1.5 1 1.5.9 0 1.6-.6 1.6-1.3 0-1.5 4.9-4.1 5.8-3.2.3.3-.5 1.3-1.8 2.3-3.2 2.3-3.3 2.4-4.6 4.7-.6 1.1-2.6 2.4-4.5 2.9-4.5 1.1-15.9 1.5-15.9.4 0-.4-1.1-.8-2.4-.8-2.2 0-2.3-.2-1.3-2.5.8-1.7 1.8-2.4 3-2.1 1.3.3 2.1-.4 2.9-2.2.9-2.2 1.2-2.3 1.5-1 .3 1 .9 1.8 1.4 1.8.6 0 .9-.8.8-1.8-.4-4 .1-4.8 1.7-2.7 1.3 1.7 1.6 1.8 2.5.5zm-26.1 1.6c0 1.4-.4 2.3-1 1.9-.5-.3-1-1.5-1-2.6 0-1 .5-1.9 1-1.9.6 0 1 1.2 1 2.6zm15.8.4c-.2.6-.8.6-1.8 0-1.3-.9-1.3-1.1 0-2 1.5-1 2.5 0 1.8 2zm-39.8 0c0 1.1-.4 2-1 2-.5 0-1-.9-1-2s.5-2 1-2c.6 0 1 .9 1 2zm5.8 1.3c.2 1-.3 1.7-1.2 1.7-1.8 0-2.9-1.6-2.1-3.1.9-1.4 2.9-.6 3.3 1.4zm6.6-.7c.9 2.3.8 2.4-1.9 2.4-3.7 0-3.1-3.5.6-3.9.4-.1 1 .6 1.3 1.5zm7 2.3c0 2-.6 3.7-1.4 3.9-.9.3-1.1-.1-.7-1.1.3-.9 0-1.8-.9-2.1-.8-.3-1.4-1.5-1.4-2.6 0-1.6.5-2.1 2.2-1.8 1.7.2 2.2 1 2.2 3.7zm119.5.3c0 2.8-.2 3-.9 1.3-1.2-2.8-1.2-4.5 0-4.5.6 0 1 1.5.9 3.2zm-166.5-1c-.8 2-5.2 4.9-5.8 3.9-.3-.5.9-1.8 2.7-3 3.8-2.5 3.8-2.4 3.1-.9zM285 429c0 .5-.4 1-1 1-.5 0-1-.5-1-1 0-.6.5-1 1-1 .6 0 1 .4 1 1zm-52.2 1.2c1.8 1.8 1.5 2.7-.8 2.1-1.1-.3-2-1.2-2-1.9 0-1.7 1.2-1.8 2.8-.2zm45.7-.1c.4.6.5 1.2.2 1.5-.7.7-3.7-.7-3.7-1.7 0-1.3 2.7-1.1 3.5.2zm-38.5.9c-.8.5-2.2 1-3 1-1.3 0-1.3-.1 0-1 .8-.5 2.2-1 3-1 1.3 0 1.3.1 0 1zm95.1 2.3c2 1.6 3.1 4.5 1.9 5.2-1.5 1-1.2 4.5.5 5.1.8.4 1.5 1.3 1.5 2.2 0 1.2-.3 1.3-1.2.4-1.8-1.8-2.4-1.5-2.6 1.8-.2 2.2.3 3.3 1.6 3.8 1.8.7 1.8.9.3 4.3-1.5 3.3-1.9 3.5-5.9 3.3-5.4-.3-6.3-1.1-3.5-3.3 3.1-2.6 1.5-4.5-2.3-2.7-1.6.8-4.5 1.6-6.4 1.8-3.1.3-3.5 0-3.3-1.9.1-1.1-.4-2.4-1.2-2.7-.8-.3-1.5-.1-1.5.4s-.9.8-2.1.7c-1.6-.1-1.9-.6-1.4-2.5.4-1.7.2-2.2-.7-1.7-.7.4-.2-.3 1.2-1.5 2-1.8 2.5-1.9 3-.6.6 1.9 3 .6 3.5-2 .2-1 .4-2.1.5-2.4 0-.3.6.2 1.3 1 1.7 2.2 3.7 2.3 3.7.3.1-1.7.1-1.7 1.4-.1.7 1 2.3 1.8 3.5 1.8 1.2 0 2.1.6 2.1 1.5 0 .8-.7 1.5-1.5 1.5s-1.5.4-1.5 1c0 1.2 6.7 1.3 7.4.1.9-1.4-.4-4.1-2-4.1-.8 0-1.9-1.2-2.4-2.6-.6-1.4-1.4-2.2-2-1.9-.5.3-1-.1-1-.9 0-.9-.5-1.6-1.2-1.6-.6 0-.8-.3-.5-.7.4-.3 1.6.2 2.6 1.1 1.9 1.7 2.1 1.7 4.2-.3 1.7-1.6 2.5-1.8 3.1-.9.4.7.8.9.8.4s-.7-1.8-1.7-2.8c-1.8-2-.6-2.4 1.8-.5zm15.8 13.6c-3.6 2.9-6.7.8-3.6-2.4 1.9-1.8 5.1-2.3 5.5-.8.2.8-.7 2.2-1.9 3.2zm-5.6 2.5c.6 1.5-.1 2.6-1.5 2.6-.4 0-.8-.9-.8-2 0-2.3 1.5-2.7 2.3-.6zm-1.5 7.1c-.1.1-1.4.6-2.7 1-2 .6-2.3.4-1.8-1 .4-.9.7-2.3.7-3.1 0-1 .6-.8 2.1.7 1.1 1.1 1.9 2.2 1.7 2.4zm3.2 4.5c0 .5-.2 1-.4 1-.3 0-.8-.5-1.1-1-.3-.6-.1-1 .4-1 .6 0 1.1.4 1.1 1zm-17 1c0 .5-.2 1-.4 1-.3 0-.8-.5-1.1-1-.3-.6-.1-1 .4-1 .6 0 1.1.4 1.1 1zm8-.6c0 .3-.4.8-1 1.1-.5.3-1 .1-1-.4 0-.6.5-1.1 1-1.1.6 0 1 .2 1 .4zm28 15.6c0 .5-.4 1-1 1-.5 0-1-.5-1-1 0-.6.5-1 1-1 .6 0 1 .4 1 1zm-165 12.4c0 .8.3 2.1.6 2.9.3.9-.3 1.6-1.5 2-2.2.5-3-1.6-1.1-2.8.5-.3.7-1.2.3-2-.3-.8 0-1.5.6-1.5s1.1.6 1.1 1.4zm20.5.6c.3.6-.1.7-.9.4-1.8-.7-2.1-1.4-.7-1.4.6 0 1.3.4 1.6 1z"/><path d="M426 300c0 .5.5 1 1 1 .6 0 1-.5 1-1 0-.6-.4-1-1-1-.5 0-1 .4-1 1zM287 415c1.9 1.3 3 1.3 3 0 0-.6-1-1-2.2-1-1.9 0-2 .2-.8 1zM177.2.7c1.5.3 3.4 1.3 4.1 2.3.7 1 1.9 1.8 2.7 1.8 3.7-.2 6.1.3 5.5 1.2-.4.6 1.4.9 4.9.7 3-.2 5.3-.1 5.1.3-.7 1.1 4.8 5.5 6.4 5.2.7-.2 1 .1.7.7-.4.5-.2 1.2.4 1.6.5.3 1 1.5 1 2.6 0 1 .5 1.9 1 1.9 1.4 0 5.3-4 4.6-4.7-.8-.9 1.4-3.3 2.9-3.3.8 0 1.1.8.8 1.9-.6 2.2 1.4 3.8 2.9 2.3.6-.6 1.7-.8 2.4-.5 1.7.6 1.8-.9.2-2.6-1.1-1.1-1-1.3.2-.9.8.3 2.3.1 3.3-.4 1.4-.7 1.7-.4 1.7 2.3 0 2.6.2 3 1.5 1.9 1.5-1.2 5.5-.5 5.5 1.1 0 .5.7.9 1.5.9s1.5-.5 1.5-1c0-.6.6-1 1.3-1 .7 0 1.8-.9 2.5-2s2.2-2 3.5-2c1.5 0 2.6-1 3.5-3 .8-1.7 2.4-3.3 3.7-3.6 1.3-.3 2.9-1.2 3.6-2 .7-.8 2-1.2 3-.9.9.3 2 .1 2.4-.5.4-.7-12.7-1-43.2-.8-24.1.1-42.6.3-41.1.5zm15.5 1.9c-.3.3-1.2.4-1.9.1-.8-.3-.5-.6.6-.6 1.1-.1 1.7.2 1.3.5zm45.1 10.3c-.6 1-1.8 1.7-2.5 1.4-2-.8-1.5-2.1 1-2.6 1.2-.2 2.3-.5 2.5-.6.1 0-.3.8-1 1.8zM309.8.7c.7.3 1.6.2 1.9-.1.4-.3-.2-.6-1.3-.5-1.1 0-1.4.3-.6.6z"/><path d="M196.7 10c.3 1.1.9 2 1.4 2 .5 0 .9-.9.9-2s-.6-2-1.4-2c-.9 0-1.2.7-.9 2zM104.1 28.4c-.8 1-.9 1.6-.1 2.1 1.6 1 5-.4 5-2.1 0-1.8-3.4-1.8-4.9 0zM374 36c0 .5.5 1 1 1 .6 0 1-.5 1-1 0-.6-.4-1-1-1-.5 0-1 .4-1 1zM119.5 44c-.3.5.1 1 .9 1 .9 0 1.6-.5 1.6-1 0-.6-.4-1-.9-1-.6 0-1.3.4-1.6 1zM357.5 60c1.8 2 3.5 2.6 3.5 1.2 0-.4-1.2-1.2-2.6-1.9-2.6-1.2-2.6-1.2-.9.7zM136 60c0 1.3 1.1 1.3 3 0 1.2-.8 1.1-1-.7-1-1.3 0-2.3.4-2.3 1zM121.5 66.4c-1.6.8-4.7 1.7-6.8 2.1-2.9.5-3.7 1-3.3 2.1.4 1-.4 2.1-2.2 3.1-3.2 1.9-8.2 7.6-5.8 6.7.9-.3 1.6-1 1.6-1.4 0-.5 2-1.8 4.5-3s4.3-2.6 3.9-3.1c-.3-.5.3-.9 1.2-.9.9 0 3.2-1.1 5-2.5 1.8-1.4 3.7-2.5 4.3-2.5.5 0 1.3-.5 1.6-1 .8-1.4-.4-1.2-4 .4zM147.3 68.7c-.7.3-1.3 1.3-1.3 2.4 0 1.3.7 1.9 2.4 1.9 1.4 0 2.7-.4 3-.9.8-1.2-2.6-3.9-4.1-3.4zM124 72.1c0 1.4-.5 3-1.2 3.7-.6.6-.8 1.5-.3 1.9.4.5 1 .2 1.2-.5.3-.6 1.1-1.2 1.9-1.2 1.8 0 1.7-2-.1-4.4-1.4-1.9-1.5-1.9-1.5.5zM341 72c0 .5.5 1 1 1 .6 0 1-.5 1-1 0-.6-.4-1-1-1-.5 0-1 .4-1 1zM119.5 73c-.3.5.1 1 .9 1 .9 0 1.6-.5 1.6-1 0-.6-.4-1-.9-1-.6 0-1.3.4-1.6 1zM149.5 75c-.3.5.1 1 1 1s1.3-.5 1-1c-.3-.6-.8-1-1-1-.2 0-.7.4-1 1zM129.7 75.7c-1.6 1.6-.5 3.3 2.1 3.3 1.5 0 3.3.5 4 1.2 1.3 1.3 2.7.5 1.8-1.1-.5-.8-6.2-4.1-7.1-4.1-.1 0-.5.3-.8.7zM145.5 76c-.3.5.1 1 .9 1 .9 0 1.6-.5 1.6-1 0-.6-.4-1-.9-1-.6 0-1.3.4-1.6 1zM117.5 77.1c-.4.6-.5 1.2-.2 1.5.7.7 3.7-.7 3.7-1.7 0-1.3-2.7-1.1-3.5.2zM140 78.9c0 .5.7 1.1 1.5 1.5.8.3 1.5.1 1.5-.3 0-.5-.7-1.1-1.5-1.5-.8-.3-1.5-.1-1.5.3zM161 81c0 .5.5 1 1 1 .6 0 1-.5 1-1 0-.6-.4-1-1-1-.5 0-1 .4-1 1zM212 82c2 1.3 3.3 1.3 2.5 0-.3-.6-1.4-1-2.3-1-1.5 0-1.5.2-.2 1zM82.4 86.4c-1 .8-1.7 1.7-1.4 2 1 1 5-.6 5-2 0-1.8-1.1-1.8-3.6 0zM110.6 85.9c-.4.7-.5 1.5-.2 1.8.9.9 1.9-.4 1.4-1.8-.4-1.1-.6-1.1-1.2 0zM244.8 86.7c.7.3 1.6.2 1.9-.1.4-.3-.2-.6-1.3-.5-1.1 0-1.4.3-.6.6zM229.7 87.7c-.4.3-4.4.6-8.9.6-6.9 0-7.6.1-4.3.8 7.2 1.4 17.8.5 14.8-1.4-.6-.4-1.3-.4-1.6 0zM234.8 87.7c1.2.2 3 .2 4 0 .9-.3-.1-.5-2.3-.4-2.2 0-3 .2-1.7.4zM113.8 89.7c.7.3 1.6.2 1.9-.1.4-.3-.2-.6-1.3-.5-1.1 0-1.4.3-.6.6zM151.6 95c-1.9.6-1.9.7.1 1.2 2.5.7 5.3-.6 3.1-1.4-.7-.3-2.2-.2-3.2.2zM132.9 96.5c1.5 1.2 2.5 1.4 3 .7.4-.7 2.2-.7 5.1-.2 2.5.5 4.7.6 4.9.4 1.1-1.1-1.7-1.9-8.2-2.2-7-.4-7.1-.3-4.8 1.3zM352 96.1c0 .5.5.7 1 .4.6-.3 1-.8 1-1.1 0-.2-.4-.4-1-.4-.5 0-1 .5-1 1.1zM152.5 99c.4.6 1.1.8 1.6.5 1.4-.9 1.1-1.5-.7-1.5-.8 0-1.2.5-.9 1zM174.8 104.7c.7.3 1.6.2 1.9-.1.4-.3-.2-.6-1.3-.5-1.1 0-1.4.3-.6.6zM170.5 108c.3.5.8 1 1.1 1 .2 0 .4-.5.4-1 0-.6-.5-1-1.1-1-.5 0-.7.4-.4 1zM284 109c0 .5.6 1 1.4 1 .8 0 1.8-.5 2.1-1 .3-.6-.3-1-1.4-1-1.2 0-2.1.4-2.1 1zM275.5 110c-1.3.6-.5.7 2.5.3 2.5-.3 4.7-.7 4.9-.9.9-.8-5.5-.2-7.4.6zM265 112.2c-3 .5-6.9 1.3-8.7 1.9-3.8 1.2-34.3.1-36-1.2-.7-.7-1.4-.6-1.8.1-.4.6-1.4.9-2.3.5-.9-.3-5.2-.8-9.6-1-10.2-.6-6.3.9 6.2 2.4 18.6 2.1 30.3 2.3 43 .7 11.6-1.6 17.2-2.9 17.2-4.1 0-.6-.7-.5-8 .7zM369.5 117c-.3.5-.1 1 .4 1 .6 0 1.1-.5 1.1-1 0-.6-.2-1-.4-1-.3 0-.8.4-1.1 1zM386.8 131.5c-.3 1.3-.2 2.2.2 2 1.1-.7 2-4.5 1-4.5-.4 0-1 1.1-1.2 2.5zM389 133.4c0 .9.5 1.6 1 1.6.6 0 1-.4 1-.9 0-.6-.4-1.3-1-1.6-.5-.3-1 .1-1 .9zM286 136c0 .5.5 1 1 1 .6 0 1-.5 1-1 0-.6-.4-1-1-1-.5 0-1 .4-1 1zM177 140.2c0 .5 1.3.8 2.9.8 1.6 0 4.4.3 6.2.6 3.1.5 3.2.4 1.4-.8-2.1-1.4-10.5-1.8-10.5-.6zM201 141c2 1.3 4 1.3 4 0 0-.6-1.2-1-2.7-1-2.2 0-2.5.2-1.3 1zM172.5 159c-1.8.8-1.7.9.8.9 1.5.1 2.7-.4 2.7-.9 0-1.2-.8-1.2-3.5 0zM239.9 164.4c-1.8.9-3.2 1-4.3.4-1-.6-2-.7-2.3-.4-.4.3-.1.6.6.6s.9.4.6 1c-.3.5-.2 1 .4 1 .5 0 1.6.3 2.5.6 1.1.4 1.6.1 1.6-1 0-.9.8-1.6 1.8-1.6.9 0 2.4-.5 3.2-1 2.4-1.6-1-1.3-4.1.4zM113 165c0 .5.4 1 .9 1 .6 0 1.3-.5 1.6-1 .3-.6-.1-1-.9-1-.9 0-1.6.4-1.6 1zM239 171.4c0 .2.7.7 1.6 1 .8.3 1.2.2.9-.4-.6-1-2.5-1.4-2.5-.6zM237.8 173.6c-.9.8.3 4.4 1.3 3.8 1.1-.7 1.2-4.4.1-4.4-.5 0-1.1.3-1.4.6zM229.5 238.9c-.3.5-.1 1.2.5 1.6.5.3 1-.1 1-.9 0-1.8-.6-2.1-1.5-.7zM274 243.5c0 .8.4 1.5 1 1.5.5 0 .7-.7.4-1.5-.4-.8-.8-1.5-1-1.5-.2 0-.4.7-.4 1.5zM376.5 243c.4.6 1.1.8 1.6.5 1.4-.9 1.1-1.5-.7-1.5-.8 0-1.2.5-.9 1zM334 246.9c0 1.4 1.8 2.3 3.1 1.5.8-.4.7-.9-.2-1.5-1.8-1.1-2.9-1.1-2.9 0zM376.7 249.3c-2.1 2.6-2.2 3.7-.2 3.7.8 0 1.7-1.1 2.1-2.5.9-3.4.2-3.8-1.9-1.2zM275 249.2c0 .9.5 2 1 2.3 1.3.8 1.3-.5 0-2.5-.8-1.3-1-1.3-1 .2zM337.4 251.5c2.6 1.9 4.2 1.9 2.6 0-.7-.8-2-1.5-2.9-1.5-1.3.1-1.3.3.3 1.5zM331 254c2 1.3 3.3 1.3 2.5 0-.3-.6-1.4-1-2.3-1-1.5 0-1.5.2-.2 1zM300.3 257.9c-.8 1.3-.9 2.2-.3 2.6 1.1.7 2.4-1.8 1.8-3.5-.2-.6-.9-.1-1.5.9zM363 266c2 1.3 3.3 1.3 2.5 0-.3-.6-1.4-1-2.3-1-1.5 0-1.5.2-.2 1zM346 270c0 .5.5 1 1.1 1 .5 0 .7-.5.4-1-.3-.6-.8-1-1.1-1-.2 0-.4.4-.4 1zM283.3 275.2c-1.3 3.8-1 13.6.5 13.1 1.1-.5 1.3-1.2 1.6-5.3.1-.8.4-2 .8-2.6.9-1.4-.1-7.4-1.3-7.4-.4 0-1.1 1-1.6 2.2zM224.6 279.8c.1 4.1.6 6.4 1.9 8 1.7 1.9 1.9 2 3.1.4.8-.9 1.4-2.4 1.4-3.2 0-2.2-3.6-9.1-4.4-8.3-.3.4-.6-.1-.6-1 0-1-.3-1.7-.7-1.7-.5 0-.8 2.6-.7 5.8zM136 288c0 .5.7 1 1.5 1s1.5-.5 1.5-1c0-.6-.7-1-1.5-1s-1.5.4-1.5 1zM400 293.5c0 .8.4 1.5.9 1.5s1.1-.7 1.5-1.5c.3-.9 0-1.5-.9-1.5-.8 0-1.5.7-1.5 1.5zM406 295.9c0 .6.4 1.2.8 1.5.5.3.9-.1.9-.9s-.4-1.5-.9-1.5c-.4 0-.8.4-.8.9zM141.5 297c-.3.6.1.7.9.4 1.8-.7 2.1-1.4.7-1.4-.6 0-1.3.4-1.6 1zM401.3 301.7c-1.5.5-1.7 2.9-.4 3.7.4.3 1.3-.6 1.9-1.9 1.1-2.5.9-2.8-1.5-1.8zM412.8 321.7c.7.3 1.6.2 1.9-.1.4-.3-.2-.6-1.3-.5-1.1 0-1.4.3-.6.6zM38 327c0 1.8 2 5 3 5 1.8 0 1-3.9-1-5-1.4-.8-2-.8-2 0zM415 331.6c0 .8.5 1.2 1 .9.6-.4.8-1.1.5-1.6-.9-1.4-1.5-1.1-1.5.7zM116 335.5c0 .8.4 1.5 1 1.5.5 0 .7-.7.4-1.5-.4-.8-.8-1.5-1-1.5-.2 0-.4.7-.4 1.5zM422 335c0 .5.4 1 .9 1 .6 0 1.3-.5 1.6-1 .3-.6-.1-1-.9-1-.9 0-1.6.4-1.6 1zM322.1 342.6c-1.8 2.1-.7 2.9 1.8 1.2 1.2-.8 1.8-1.8 1.4-2.1-.9-1-1.6-.8-3.2.9zM146.5 354c-.3.5-.1 1 .4 1 .6 0 1.1-.5 1.1-1 0-.6-.2-1-.4-1-.3 0-.8.4-1.1 1zM328.6 354.2c-.7 2.1-.3 4.8.6 4.8.4 0 .8-.7.8-1.5s.6-1.5 1.4-1.5c.8 0 1.8-.5 2.2-1.2.5-.8.2-.9-.9-.5-1 .3-1.7.2-1.7-.3 0-1.4-2-1.2-2.4.2zM151 356.1c0 .5.5.7 1 .4.6-.3 1-.8 1-1.1 0-.2-.4-.4-1-.4-.5 0-1 .5-1 1.1zM397 356c0 .5.5 1 1 1 .6 0 1-.5 1-1 0-.6-.4-1-1-1-.5 0-1 .4-1 1zM339 357c0 .5.5 1 1.1 1 .5 0 .7-.5.4-1-.3-.6-.8-1-1.1-1-.2 0-.4.4-.4 1zM158.5 358c-.3.5-.1 1 .4 1 .6 0 1.1-.5 1.1-1 0-.6-.2-1-.4-1-.3 0-.8.4-1.1 1zM343.6 362.4c-.5 2.2-1 2.4-4.2 1.9-2.9-.5-3.6-.3-3.2.8.3.8 1.2 1.2 1.9 1 .8-.2 2.9-.3 4.7-.2 1.7.1 3.2-.3 3.2-.9 0-.6 1-.8 2.4-.4 3 .7 4.1-.8 1.6-2.4-1.2-.7-2.1-.8-2.5-.2-1 1.6-2.5 1.2-1.9-.5.4-.8.2-1.5-.4-1.5-.5 0-1.3 1.1-1.6 2.4zM332 362.5c-1 1.3-.9 1.5.9 1.5 1.1 0 2.1-.4 2.1-.9 0-1.8-1.8-2.1-3-.6z"/><path d="M347 366c0 .5.5 1 1.1 1 .5 0 .7-.5.4-1-.3-.6-.8-1-1.1-1-.2 0-.4.4-.4 1zM339 369c0 .5.5 1 1.1 1 .5 0 .7-.5.4-1-.3-.6-.8-1-1.1-1-.2 0-.4.4-.4 1zM419.4 369.1c-.3.6-.1 1.6.5 2.2.8.8 1.1.5 1.1-1.1 0-2.4-.5-2.8-1.6-1.1zM316.2 371.5c.2 2.3 1.8 3.7 1.8 1.6 0-.5 1-1.2 2.3-1.5 2.1-.7 2.1-.7.2-1.6-3.4-1.5-4.5-1.1-4.3 1.5zM342 370.1c0 .5 1.5 1.3 3.3 1.8 1.7.5 2.6 1 2 1-.7.1-1.3 1.3-1.3 2.7 0 2.2.3 2.4 2.3 1.8 1.2-.4 3.2-.7 4.5-.6 3.3.3 2.7-1.8-.8-2.5-2.9-.5-3-.7-1.7-2.7 1.4-2 1.3-2.1-3.4-2.3-2.7 0-4.9.3-4.9.8zM354.2 370.1c.2.7 1 1.5 1.7 1.7.8.3 1.2-.1.9-.9-.2-.7-1-1.5-1.7-1.7-.8-.3-1.2.1-.9.9zM415.4 370.4c-.4 1.1-.1 2.1.7 2.7 1.7 1.1 2.6-1.8 1-3.4-.7-.7-1.2-.5-1.7.7zM312 375c.8.5 2 1 2.5 1 .6 0 .3-.5-.5-1s-1.9-1-2.5-1c-.5 0-.3.5.5 1zM336 375c0 .5.5 1 1 1 .6 0 1-.5 1-1 0-.6-.4-1-1-1-.5 0-1 .4-1 1zM288.5 375.9c-.3.5.4 1.3 1.6 1.6 2.8.9 3.6-.1 1-1.4-1.2-.7-2.2-.7-2.6-.2zM341 375.9c0 .5.5 1.3 1 1.6.6.3 1 .2 1-.4 0-.5-.4-1.3-1-1.6-.5-.3-1-.2-1 .4zM408 376.4c0 .9.5 1.6 1 1.6.6 0 1-.4 1-.9 0-.6-.4-1.3-1-1.6-.5-.3-1 .1-1 .9zM281 378c0 .5.7 1 1.5 1s1.5-.5 1.5-1c0-.6-.7-1-1.5-1s-1.5.4-1.5 1zM253 379c0 .5.5 1 1 1 .6 0 1-.5 1-1 0-.6-.4-1-1-1-.5 0-1 .4-1 1zM356 379c0 .5.5 1 1.1 1 .5 0 .7-.5.4-1-.3-.6-.8-1-1.1-1-.2 0-.4.4-.4 1zM318.5 382c-.3.5-.1 1 .4 1 .6 0 1.1-.5 1.1-1 0-.6-.2-1-.4-1-.3 0-.8.4-1.1 1zM248.4 387.1c-.3.5.6.9 2 .9 3.1 0 3.4-.6.6-1.3-1.1-.3-2.3-.1-2.6.4zM370 434.5c0 .8.9 1.5 2 1.5 1.3 0 1.8-.5 1.4-1.5-.4-.8-1.2-1.5-2-1.5s-1.4.7-1.4 1.5zM375.5 441c-.3.5-.1 1 .4 1 .6 0 1.1-.5 1.1-1 0-.6-.2-1-.4-1-.3 0-.8.4-1.1 1zM373 451c0 .5.5 1 1 1 .6 0 1-.5 1-1 0-.6-.4-1-1-1-.5 0-1 .4-1 1zM364.2 460.9c.4 1.3 1.8 1.6 1.9.4 0-.4-.5-.9-1.1-1.2-.7-.2-1.1.2-.8.8zM294 467.5c3.3 1.9 5 1.8 2.6 0-1.1-.8-2.7-1.5-3.5-1.5-1 .1-.7.6.9 1.5zM312.5 475c1.7 3.2 3.7 4.6 7.8 5.4 2.7.5 3.7-.7 1.7-1.9-1.6-1-1.2-2.2 1-2.8 1.3-.3 1.8-1 1.4-2.1-.7-1.9-3.5-2.2-3-.4.1.7.1.9-.2.5-.2-.4-1.9-.5-3.7-.1-1.9.3-3.5.1-3.9-.5-1.6-2.5-2.5-.9-1.1 1.9zM245.3 476.7c-1.2.4-1.9 3.3-.8 3.3 1.2 0 5.5-2.4 5.5-3.2 0-.9-2.7-1-4.7-.1zM334 477.9c0 2.5.6 2.7 1.3.6.4-.8.2-1.7-.3-2-.6-.4-1 .3-1 1.4zM271 495.6c0 .7-.3 1.9-.6 2.8-.5 1.4.4 1.6 6.5 1.6 5.8 0 6.9-.3 6.5-1.5-.4-.8-1.8-1.5-3.4-1.5-1.5 0-3.3-.6-3.9-1.4-1.5-1.7-5.1-1.7-5.1 0zM322.6 497.5c.4.8 1 1.2 1.5.9 1.1-.6.2-2.4-1.1-2.4-.5 0-.7.7-.4 1.5z"/></svg>